<?xml version="1.0" encoding="UTF-8"?>
<!DOCTYPE svg  PUBLIC '-//W3C//DTD SVG 20010904//EN'  'http://www.w3.org/TR/2001/REC-SVG-20010904/DTD/svg10.dtd'>
<svg width="820pt" height="889pt" version="1.0" viewBox="0 0 820 889" xmlns="http://www.w3.org/2000/svg">
<metadata>Created by potrace 1.16, written by Peter Selinger 2001-2019</metadata>
<g transform="translate(0 889) scale(.1 -.1)">
<path d="m3750 8474c-735-39-1088-110-1568-315-368-158-568-364-708-732-92-240-138-498-168-933-13-192-15-202-44-255-38-68-56-158-50-254 7-111 11-109-177-115-180-6-181-7-210-103-22-72-81-372-96-484-7-53-17-93-23-94-131-8-144-29-137-229 3-78 17-96 87-114l49-12 12-160c7-87 19-203 28-257 23-151 35-130-141-242-232-149-331-248-420-420-61-119-78-208-71-369 13-293 104-469 335-653 29-23 63-72 117-168 79-139 138-223 348-492 172-221 157-192 157-306 0-299 106-646 289-946 289-473 674-638 1404-602 314 16 474 45 665 121 185 75 221 101 322 235 39 53 89 109 111 125 87 63 265 75 415 29 90-28 136-61 181-128 48-72 80-101 178-162 195-121 433-177 837-199 306-17 536 9 767 86 58 19 130 49 160 66 237 133 423 355 568 680 118 265 173 499 173 743v80l121 150c185 228 331 439 448 650 12 22 45 55 72 74 81 55 172 162 218 254 95 191 121 443 65 636-35 122-138 276-260 391-72 67-211 163-306 211-65 33-64 31-48 139 5 36 18 148 30 250 12 101 25 189 31 196 5 6 27 14 48 18 67 10 76 31 76 168 0 119 0 120-28 144-20 17-40 24-71 24h-44l-7 58c-8 66-103 524-115 558-17 44-47 53-209 62-125 8-157 12-166 26-7 9-14 67-17 140-5 118-7 128-41 198-35 73-36 74-61 353-47 507-101 744-226 990-132 256-300 419-575 554-339 168-736 273-1215 322-99 10-970 20-1110 13zm929-64c523-31 978-137 1349-315 138-67 234-129 319-208 234-219 376-556 437-1033 22-175 48-536 39-544-4-4-91 8-193 26-972 176-1880 223-3364 174-618-21-1204-83-1731-185-178-34-165-37-165 38 0 206 48 621 95 815 71 293 197 527 374 694 124 118 247 188 491 283 386 150 799 229 1322 254 245 12 830 12 1027 1zm-29-2251c638-21 1028-48 1380-95 378-50 877-145 896-169 7-10 13-156 17-442 6-445 30-1010 47-1123 21-140 7-257-41-353-25-48-160-239-166-233-2 2-10 51-18 107l-13 104 70 104 70 105-5 85c-2 47-14 151-25 231s-25 215-31 300c-23 318-33 425-42 440-6 12-8 10-9-8 0-33-77-418-106-536-42-165-97-246-223-331-119-78-127-80-223-46-219 76-448 183-625 294-51 32-275 188-498 348-222 159-434 307-469 329-286 175-541 216-799 130-173-58-303-139-683-425-384-289-662-467-901-574-116-52-333-131-362-131-24 0-172 94-229 145-96 87-129 180-202 580-23 127-45 239-50 250-6 17-9 15-14-15-3-19-17-201-31-405-14-203-32-422-40-487-21-156-4-234 68-314 55-63 58-73 46-161-17-130-17-128-39-108-11 10-49 61-84 114-120 180-123 199-96 588 32 469 42 713 43 1075 2 295 4 339 18 353 21 21 421 102 739 149 520 78 975 114 1700 135 279 8 446 7 930-10zm2639-358c19-12 77-257 100-426 51-361 48-685-10-970-33-163-40-181-68-190-37-11-204-33-217-28-15 6-19 26-33 168-39 385-77 1425-54 1448 10 10 266 8 282-2zm-6095-17c3-9 6-141 6-294 0-337-53-1245-77-1306-6-17-16-17-131 0-124 19-136 28-157 117-38 170-48 280-49 549-1 276 0 289 55 647 29 186 47 262 70 290 9 10 46 13 144 13 112 0 134-2 139-16zm3029-399c230-40 380-125 848-482 347-264 525-381 758-497 139-70 355-155 510-200 185-55 253-95 310-184 66-103 75-227 27-368-30-90-50-127-201-384-69-118-145-252-168-297-23-46-48-83-55-83-34 0-409 196-532 278-182 122-253 187-545 494-475 501-568 588-739 690-211 127-419 132-636 16-155-82-215-137-666-615-367-388-509-515-714-640-81-49-469-248-473-242-2 2-21 36-42 74-21 39-104 182-183 320-80 137-157 279-172 316-33 80-60 183-60 230 0 86 57 208 126 269 51 45 113 72 279 125 179 56 323 114 474 189 241 121 395 224 824 549 358 272 491 355 662 412 133 45 235 53 368 30zm3291-1234c154-80 330-229 406-345 135-207 139-528 9-776-36-70-102-150-114-139-2 3 11 46 30 95 69 185 80 325 35 446-50 134-131 215-359 360-97 61-198 132-226 157-27 26-75 66-107 90-77 58-84 81-26 81 50 0 182 31 213 50 43 26 55 25 139-19zm-6680 4c32-16 87-30 146-38 51-7 95-18 97-24s-22-33-54-59c-31-27-80-70-108-96-27-25-88-70-135-98-141-88-282-191-336-247-29-29-68-84-87-121-73-140-74-267-3-474 48-137 44-149-23-73-41 47-74 114-113 228-27 80-32 109-36 224-5 158 12 251 66 363 62 129 239 288 443 399 41 23 78 41 83 41s32-11 60-25zm3411-110c147-31 402-177 586-337 310-269 394-339 499-418 149-111 297-200 488-293 174-86 271-122 553-207 278-84 333-111 439-219 121-122 198-279 246-501 28-127 26-408-4-546-78-360-272-748-469-935-217-206-479-286-968-296-265-5-377 5-590 52-229 51-355 112-446 212-42 48-69 105-69 149 0 11 14 75 30 142 41 167 41 166-21 198-28 14-48 29-43 33 5 5 36 5 69 1s66-5 72-2c7 2 22 34 32 71 63 210 121 426 121 446 0 28-23 47-82 69l-48 18v163c0 195 0 195-112 195-81 0-83 4-38 98 17 35 30 73 30 84 0 70-130 166-226 168-34 0-73-34-142-122-20-27-39-48-43-48-3 0-34 34-68 75-77 93-87 98-148 85-92-21-193-102-193-156 0-13 14-52 31-85 16-33 29-70 27-82-3-20-11-23-76-27-105-7-106-8-98-196 4-111 2-155-7-167-6-9-37-24-67-34-42-14-56-23-58-40-4-26 124-479 145-512 14-21 19-23 70-16 31 4 62 9 70 12 32 12 9-18-32-42-24-15-47-34-50-44-3-9 9-72 25-139 17-68 30-142 30-164 0-130-163-263-405-333-269-77-555-107-845-87-571 40-841 195-1072 618-177 323-254 573-265 859-6 177 8 282 63 445 59 177 107 264 199 356 102 104 193 149 470 234 247 76 388 131 575 226 277 140 384 217 813 584 280 238 355 295 477 358 197 102 358 132 525 97zm2893-57c37-28 73-57 80-63 24-21-238-490-491-880-136-209-155-235-176-235-19 0-175 45-191 55-15 9 14 73 133 290 142 259 203 356 360 572 71 98 146 208 166 245s39 68 44 68c4 0 38-23 75-52zm-5973 1c11-22 100-155 200-295 99-140 211-305 249-367 91-152 240-451 233-469-6-17-181-70-202-62-17 7-243 350-342 519-156 265-324 570-321 582s146 131 159 132c3 1 14-17 24-40zm-214-170c17-35 18-44 7-54-15-14-295-185-303-185-9 0-35 72-29 82 7 11 286 198 296 198 4 0 17-19 29-41zm6458-25c182-114 192-126 152-175l-19-23-146 88c-81 48-150 94-153 102-9 24 17 74 39 74 12 0 68-30 127-66zm-53-149c78-48 148-92 154-100 10-12 7-24-14-60-15-25-30-44-34-42-44 24-290 173-300 182-12 10-11 18 3 46 19 38 35 59 43 59 2 0 69-38 148-85zm-6326 25c11-21 20-43 20-48 0-7-236-157-312-199-12-6-50 91-41 105 10 16 283 182 300 182 7 0 22-18 33-40zm6718-133c63-83 85-134 90-213 15-228-146-581-463-1014-144-196-227-303-240-307-5-1-17 28-26 65s-45 141-79 230c-56 144-61 166-51 189 7 14 76 130 155 257 239 387 303 498 456 793l53 102 33-25c18-14 50-49 72-77zm-7070-139c124-242 226-419 418-727 74-117 134-218 134-224s-20-60-45-118c-39-92-74-209-101-334l-6-30-45 50c-65 72-238 304-314 420-86 130-147 239-230 408-91 186-113 269-114 422 0 112 2 124 28 177 29 59 127 168 151 168 9 0 60-89 124-212zm6596 77c81-49 150-94 153-101 5-14-39-95-63-114-11-10-41 3-162 75-81 49-150 93-154 99-10 15 57 140 71 132 3-2 73-43 155-91zm-6163 47c9-15 26-43 38-63l21-36-160-97c-88-54-164-95-169-92s-23 31-41 62c-26 47-29 59-18 69 20 19 291 185 303 185 6 0 17-12 26-28zm6054-243c85-50 155-96 155-102 0-9-65-135-76-146-1-2-77 40-168 94-155 91-165 99-154 119 21 40 78 126 83 126 3 0 75-41 160-91zm-5917 10c23-39 40-74 37-79-9-14-304-190-319-190-18 0-89 132-79 147 7 11 301 191 313 193 3 0 24-32 48-71zm5791-207c79-48 148-94 154-103 8-13 2-31-29-80-22-35-46-65-54-67-12-2-310 165-329 184-6 6 93 154 104 154 6-1 75-40 154-88zm-5666 3c26-42 46-79 43-84-12-19-317-193-330-188-17 7-89 133-84 147 3 9 304 197 318 199 3 1 27-33 53-74zm5542-218c82-51 151-99 153-108 4-21-49-109-66-109-20 0-317 187-320 202-4 19 55 108 70 107 7 0 80-42 163-92zm-5416 25c17-27 31-53 31-58s-73-53-162-108c-113-69-166-96-175-90-8 5-28 32-44 60l-29 52 157 95c87 53 165 96 174 96 10 1 31-21 48-47zm5297-188c183-114 178-109 157-145-10-16-20-29-23-29s-39 34-80 76c-41 41-108 96-147 121-70 45-88 63-60 63 7 0 76-39 153-86zm-5226 58c0-5-41-35-91-67-55-37-112-84-147-123l-56-64-18 22c-10 12-18 28-18 35 0 14 295 204 318 205 6 0 12-4 12-8z"/>
<path d="m3175 5884c-422-34-1330-94-1422-94-41 0-58-5-82-26-30-25-31-28-31-108 0-129 110-527 191-692 80-163 183-254 288-254 70 0 144 40 567 307 530 335 655 409 919 541 128 64 204 122 225 172 16 39 8 115-16 142-52 58-76 58-639 12zm-1399-269c62-312 171-615 273-754 44-62 49-71 31-71-92 0-208 180-304 470-77 232-105 413-69 452 33 37 46 19 69-97z"/>
<path d="m4445 5906c-47-14-85-63-85-110 1-51 35-112 81-146 24-17 115-67 203-112 214-108 278-145 811-476 252-157 486-298 520-313 139-66 242-27 349 135 130 196 283 751 235 851-29 60-45 63-394 80-447 21-830 46-1330 85-284 23-334 23-390 6zm2050-186c15-17 17-30 11-87-20-199-78-406-161-578-83-173-161-265-225-265-20 0-18 5 19 51 107 135 240 502 292 804 16 96 30 112 64 75z"/>
<path d="m3961 2720c-172-46-288-129-370-267-22-37-109-219-194-403-237-516-251-540-321-577-38-20-137-18-180 2-20 9-66 44-103 77-158 140-280 195-453 205-326 18-590-218-590-527 0-246 145-444 424-580 265-130 610-147 913-45 136 46 213 87 285 153 106 99 125 155 101 296-28 165-101 364-142 385-15 9-38 9-85 1-35-7-75-10-90-8l-27 3 50 65c36 48 85 143 181 355 152 335 243 522 295 599 110 165 280 245 495 232 201-11 334-92 443-268 25-40 118-235 207-433 177-394 194-428 253-492 22-24 37-46 34-50-4-3-46 0-94 6-49 7-96 9-105 6-31-12-99-191-133-353-30-144-16-208 62-293 64-68 122-107 223-149 237-99 569-123 815-60 101 26 261 103 342 164 255 193 335 487 200 740-109 204-381 318-624 261-126-30-222-84-351-199-146-129-268-129-359 2-52 73-61 92-199 400-243 539-298 624-458 702-44 22-108 47-141 55-81 21-213 18-304-5z"/>
</g>
</svg>
