<?xml version="1.0" standalone="no"?>
<!DOCTYPE svg PUBLIC "-//W3C//DTD SVG 20010904//EN"
 "http://www.w3.org/TR/2001/REC-SVG-20010904/DTD/svg10.dtd">
<svg version="1.0" xmlns="http://www.w3.org/2000/svg"
 width="1840.000000pt" height="1024.000000pt" viewBox="0 0 1840.000000 1024.000000"
 preserveAspectRatio="xMidYMid meet">
<metadata>
Created by potrace 1.13, written by Peter Selinger 2001-2015
</metadata>
<g transform="translate(0.000000,1024.000000) scale(0.100000,-0.100000)"
fill="#000000" stroke="none">
<path d="M8850 9678 c-200 -19 -502 -70 -610 -103 -169 -51 -238 -74 -335
-113 -384 -153 -723 -403 -971 -713 -102 -128 -259 -380 -312 -499 -11 -25
-30 -67 -42 -95 -43 -94 -112 -282 -136 -370 -45 -168 -67 -261 -99 -425 -56
-289 -81 -809 -53 -1095 l10 -107 -37 -91 c-21 -51 -46 -111 -56 -134 -11 -23
-19 -45 -19 -48 0 -3 -9 -25 -19 -48 -11 -23 -54 -127 -96 -232 -42 -104 -82
-203 -90 -220 -7 -16 -32 -76 -54 -133 -23 -56 -45 -110 -50 -120 -5 -9 -28
-66 -51 -127 -46 -120 -87 -221 -100 -246 -4 -9 -29 -69 -55 -135 -25 -65 -50
-123 -56 -128 -5 -6 -9 -16 -9 -23 0 -8 -9 -33 -20 -55 -11 -23 -20 -46 -20
-50 0 -5 -9 -28 -20 -50 -11 -23 -20 -46 -20 -50 0 -5 -9 -28 -20 -50 -11 -23
-20 -46 -20 -50 0 -5 -9 -28 -20 -50 -11 -23 -20 -45 -20 -50 0 -5 -8 -27 -19
-51 -37 -84 -71 -167 -176 -432 -58 -148 -111 -278 -116 -287 -5 -10 -9 -23
-9 -28 0 -6 -9 -30 -20 -52 -30 -62 -28 -79 24 -188 25 -53 15 -39 114 -165
202 -258 620 -553 983 -694 46 -18 93 -37 104 -42 41 -17 171 -57 210 -64 22
-4 45 -11 50 -15 6 -4 26 -10 45 -13 19 -4 60 -11 90 -17 30 -5 87 -14 125
-19 123 -16 165 -34 165 -68 0 -7 4 -21 9 -31 5 -9 35 -70 66 -135 32 -65 68
-133 81 -153 13 -19 24 -38 24 -43 0 -4 9 -16 20 -26 11 -10 20 -22 20 -27 0
-4 28 -44 62 -89 221 -290 493 -514 797 -656 64 -30 123 -58 131 -62 28 -14
274 -89 350 -106 296 -67 678 -81 978 -35 216 34 215 33 367 70 309 75 651
239 860 412 130 108 266 259 340 377 6 9 21 34 35 56 14 22 45 81 69 130 24
50 47 98 52 107 5 10 9 26 9 36 0 10 4 22 8 28 8 9 18 39 45 139 11 41 18 50
38 53 65 7 234 41 362 73 96 24 123 32 139 40 10 5 27 9 37 9 11 0 30 4 43 9
13 5 75 28 138 52 103 37 151 58 285 120 377 176 706 482 854 794 24 50 47 98
52 107 12 24 11 65 -1 73 -5 3 -10 13 -10 20 0 8 -13 44 -30 80 -16 36 -30 69
-30 73 0 5 -9 27 -20 50 -11 22 -20 46 -20 51 0 6 -9 30 -19 53 -10 24 -29 68
-41 98 -13 30 -31 74 -41 97 -11 24 -19 49 -19 56 0 7 -4 17 -9 23 -5 5 -70
164 -146 354 -75 190 -143 359 -151 375 -20 45 -52 125 -167 410 -58 143 -110
274 -117 290 -7 17 -19 44 -25 60 -7 17 -65 161 -129 320 -64 160 -121 299
-126 310 -5 11 -25 57 -44 102 l-34 82 10 153 c19 305 -5 682 -63 1013 -171
959 -652 1666 -1387 2039 -139 70 -306 138 -432 175 -41 13 -86 26 -100 31
-29 10 -76 21 -105 25 -11 2 -54 11 -95 20 -300 65 -784 93 -1090 63z m77
-1613 l2 -1450 136 -132 c126 -124 150 -153 124 -153 -9 0 -73 46 -107 77 -7
7 -26 20 -42 30 -17 9 -30 21 -30 25 0 4 -4 8 -10 8 -5 0 -37 21 -70 46 l-60
45 0 1473 c0 810 3 1476 7 1480 4 4 16 6 28 4 l20 -3 2 -1450z m555 837 c3
-337 9 -623 12 -635 3 -13 6 -402 6 -865 l2 -842 -30 -25 c-16 -14 -33 -25
-36 -25 -4 0 -21 -13 -39 -30 -18 -16 -40 -30 -49 -30 -17 0 -18 78 -18 1488
l0 1489 -22 20 c-25 23 -75 39 -150 48 -27 4 -48 11 -48 16 0 6 71 8 183 7
l182 -3 7 -613z m618 301 c380 -93 666 -375 884 -873 105 -240 217 -710 252
-1061 3 -30 11 -133 18 -229 12 -172 9 -203 -19 -181 -23 19 -166 57 -300 80
-87 15 -377 21 -470 10 -44 -5 -102 -12 -129 -16 -48 -6 -49 -5 -43 18 32 119
45 782 19 989 -20 159 -53 356 -74 440 -10 41 -20 84 -22 95 -6 36 -71 235
-110 335 -42 109 -81 201 -130 299 -25 52 -46 103 -46 113 0 23 1 22 170 -19z
m777 -125 c22 -18 60 -49 84 -68 24 -19 96 -86 159 -150 290 -291 488 -627
639 -1085 76 -233 103 -340 140 -575 41 -259 47 -450 29 -940 -1 -23 19 -83
56 -170 65 -153 137 -324 203 -485 24 -60 51 -123 58 -140 31 -69 265 -634
265 -640 0 -2 13 -32 29 -67 16 -35 44 -99 61 -143 17 -44 37 -93 44 -110 80
-188 166 -395 166 -400 0 -3 11 -28 25 -57 14 -28 25 -55 25 -60 0 -5 9 -27
19 -51 32 -70 125 -293 186 -446 31 -79 72 -180 91 -224 33 -77 34 -82 17 -94
-17 -13 -93 -37 -98 -31 -4 5 -95 199 -95 203 0 2 -20 46 -44 98 -25 52 -60
133 -79 178 -19 46 -46 109 -60 139 -14 30 -44 100 -67 155 -23 55 -53 127
-67 160 -14 33 -31 74 -38 90 -55 135 -77 189 -100 250 -28 71 -38 94 -74 177
-12 26 -21 54 -21 61 0 7 -4 17 -9 22 -5 6 -18 35 -29 65 -27 73 -146 361
-177 428 -14 29 -25 55 -25 58 0 3 -38 85 -85 181 -47 97 -102 217 -121 267
-75 192 -154 412 -186 516 -11 36 -29 91 -40 123 -11 32 -17 61 -15 64 3 3 24
-10 46 -28 23 -18 44 -30 47 -27 3 3 -11 28 -30 56 -20 27 -36 56 -36 64 0 9
-6 21 -14 27 -12 10 -15 54 -15 232 0 217 -9 340 -37 534 -23 166 -31 209 -64
342 -108 441 -265 799 -505 1149 -56 83 -212 274 -250 309 -6 6 -29 30 -51 54
-43 49 -23 44 43 -11z m-2602 -208 c3 -5 -1 -10 -10 -10 -9 0 -13 5 -10 10 3
6 8 10 10 10 2 0 7 -4 10 -10z m62 -107 c-3 -49 -19 -158 -37 -243 -17 -85
-35 -180 -40 -210 -5 -30 -18 -105 -29 -166 -27 -144 -51 -399 -51 -535 0
-116 22 -289 47 -378 20 -69 72 -121 182 -181 144 -79 184 -111 194 -153 11
-45 1 -121 -17 -137 -11 -8 -22 -6 -48 8 -46 26 -231 91 -293 103 -57 11 -137
26 -210 40 -157 29 -480 33 -533 7 -17 -9 -25 -9 -35 1 -9 9 -4 19 24 44 38
34 139 151 175 202 54 78 78 152 104 320 96 632 190 955 345 1185 53 78 94
119 155 154 72 40 74 39 67 -61z m-1276 -164 c-28 -56 -51 -106 -51 -111 0 -4
-9 -27 -19 -51 -50 -108 -142 -426 -175 -602 -3 -11 -9 -47 -15 -80 -7 -33
-16 -80 -21 -105 -17 -79 -40 -308 -54 -525 -12 -193 -13 -550 -1 -602 3 -14
-2 -30 -12 -41 -55 -55 -143 -161 -143 -171 0 -22 18 -10 74 49 53 55 76 71
76 53 0 -7 -68 -190 -115 -308 -13 -33 -40 -102 -60 -154 -20 -52 -45 -113
-55 -135 -10 -23 -37 -90 -60 -151 -42 -110 -73 -185 -91 -217 -5 -10 -9 -22
-9 -28 0 -6 -10 -32 -21 -58 -41 -92 -49 -110 -49 -116 0 -3 -11 -29 -25 -58
-14 -28 -25 -55 -25 -60 0 -4 -13 -37 -30 -73 -16 -36 -30 -69 -30 -74 0 -4
-14 -39 -30 -77 -17 -38 -35 -78 -40 -89 -5 -11 -16 -42 -26 -70 -10 -27 -21
-54 -25 -60 -4 -5 -24 -53 -45 -105 -20 -52 -41 -99 -45 -105 -5 -5 -9 -15 -9
-22 0 -7 -13 -41 -28 -75 -16 -35 -35 -79 -42 -98 -8 -19 -22 -50 -32 -68 -10
-18 -18 -41 -18 -50 0 -10 -4 -22 -8 -27 -5 -6 -19 -37 -32 -70 -13 -33 -26
-64 -30 -70 -4 -5 -11 -21 -15 -35 -7 -24 -22 -58 -71 -168 -13 -29 -24 -56
-24 -61 0 -4 -11 -30 -25 -57 -14 -27 -25 -53 -25 -57 0 -5 -12 -34 -26 -65
-14 -31 -34 -77 -44 -102 -10 -25 -29 -70 -43 -100 -42 -93 -64 -143 -80 -182
-9 -21 -18 -38 -21 -38 -5 0 -62 36 -100 63 -18 13 -18 14 -1 53 9 21 21 48
25 59 8 21 26 64 53 125 8 19 29 71 47 115 54 135 181 448 197 485 26 61 31
73 59 145 14 39 33 86 41 105 8 19 19 45 24 58 5 12 13 32 18 45 5 12 18 43
30 69 12 26 21 51 21 56 0 5 9 27 20 50 11 22 20 45 20 51 0 5 9 26 19 48 11
21 29 65 41 98 12 33 28 74 35 90 8 17 23 55 35 85 26 66 48 119 61 142 5 10
9 23 9 28 0 6 9 30 20 52 11 23 20 45 20 50 0 5 8 27 19 51 10 23 33 78 51
122 18 44 41 98 50 120 10 22 28 67 41 100 12 33 32 83 44 110 12 28 30 70 39
95 10 25 22 54 27 65 5 11 29 74 55 140 26 66 54 138 64 160 14 32 19 81 25
250 7 233 11 307 20 410 9 115 35 346 45 405 5 30 11 71 14 90 12 94 79 408
112 520 9 30 17 60 18 67 1 7 5 16 9 19 4 4 7 18 7 30 0 13 5 26 10 29 6 3 10
14 10 24 0 25 110 295 140 341 5 8 21 38 35 65 52 102 206 317 213 297 2 -7
-19 -57 -47 -113z m2229 65 c0 -8 -5 -12 -10 -9 -6 4 -8 11 -5 16 9 14 15 11
15 -7z m0 -120 c0 -8 -5 -12 -10 -9 -6 4 -8 11 -5 16 9 14 15 11 15 -7z
m-1710 -259 c0 -8 -7 -15 -15 -15 -16 0 -20 12 -8 23 11 12 23 8 23 -8z m-20
-40 c0 -8 -4 -15 -10 -15 -5 0 -10 7 -10 15 0 8 5 15 10 15 6 0 10 -7 10 -15z
m154 -186 c-3 -5 -10 -7 -15 -3 -5 3 -7 10 -3 15 3 5 10 7 15 3 5 -3 7 -10 3
-15z m1056 -714 c0 -8 -4 -15 -10 -15 -5 0 -10 7 -10 15 0 8 5 15 10 15 6 0
10 -7 10 -15z m-1435 -34 c3 -5 1 -12 -5 -16 -5 -3 -10 1 -10 9 0 18 6 21 15
7z m2445 -66 c0 -8 -4 -15 -10 -15 -5 0 -10 7 -10 15 0 8 5 15 10 15 6 0 10
-7 10 -15z m-1010 -20 c0 -8 -4 -15 -10 -15 -5 0 -10 7 -10 15 0 8 5 15 10 15
6 0 10 -7 10 -15z m-1455 -115 c3 -5 1 -10 -4 -10 -6 0 -11 5 -11 10 0 6 2 10
4 10 3 0 8 -4 11 -10z m1439 -171 c-3 -5 -10 -7 -15 -3 -5 3 -7 10 -3 15 3 5
10 7 15 3 5 -3 7 -10 3 -15z m-24 -75 c0 -8 -5 -12 -10 -9 -6 4 -8 11 -5 16 9
14 15 11 15 -7z m2220 -63 c56 -13 167 -45 200 -58 14 -6 51 -18 82 -28 31 -9
66 -27 76 -39 11 -11 82 -142 157 -291 76 -148 141 -272 146 -273 5 -2 6 -8 3
-13 -3 -6 -21 2 -41 17 -58 44 -167 114 -178 114 -6 0 -41 16 -79 35 -37 19
-93 42 -124 51 -32 9 -66 20 -77 24 -33 14 -144 35 -235 46 -30 4 -59 10 -65
14 -5 4 -102 8 -214 8 -112 1 -205 3 -206 4 -26 40 -125 302 -125 333 0 26
107 49 320 68 126 12 272 7 360 -12z m-3040 -16 c191 -21 227 -29 405 -89 116
-39 144 -58 122 -84 -6 -8 -31 -71 -55 -141 -23 -69 -46 -129 -50 -133 -4 -3
-47 2 -97 12 -177 35 -310 44 -477 31 -210 -16 -337 -32 -344 -42 -3 -5 -20
-9 -39 -9 -19 0 -37 -4 -40 -10 -3 -5 -17 -10 -30 -10 -13 0 -26 -4 -29 -9 -3
-4 -19 -11 -36 -15 -42 -8 -160 -55 -190 -76 -14 -9 -35 -20 -48 -23 -22 -5
-23 -5 -7 16 32 45 123 184 147 227 30 53 84 144 107 180 9 14 28 47 41 73 31
60 52 71 160 86 47 7 101 16 120 20 56 13 195 12 340 -4z m629 -184 c5 -9 5
-38 0 -66 -4 -28 -15 -92 -23 -144 -9 -51 -18 -96 -21 -99 -7 -8 -85 20 -85
30 0 5 4 28 10 51 5 23 19 85 30 137 11 52 23 100 25 106 5 16 54 5 64 -15z
m2956 -16 c33 -27 45 -46 54 -83 13 -52 89 -298 126 -407 13 -38 22 -71 21
-72 -15 -15 -66 48 -66 82 0 6 -18 56 -40 111 -23 54 -52 131 -65 169 -13 39
-37 104 -54 145 -44 106 -42 109 24 55z m-1680 -45 c-3 -5 -10 -10 -16 -10 -5
0 -9 5 -9 10 0 6 7 10 16 10 8 0 12 -4 9 -10z m-44 -33 c-1 -12 -15 -9 -19 4
-3 6 1 10 8 8 6 -3 11 -8 11 -12z m-1057 -28 c-3 -5 -10 -7 -15 -3 -5 3 -7 10
-3 15 3 5 10 7 15 3 5 -3 7 -10 3 -15z m194 1 c12 -11 23 -20 26 -20 5 0 149
-106 206 -151 14 -11 37 -28 53 -37 l27 -16 0 -158 c0 -94 -4 -159 -10 -163
-10 -6 -72 31 -78 47 -2 4 -9 8 -16 8 -7 0 -21 8 -32 18 -10 9 -31 23 -46 31
-16 8 -28 18 -28 23 0 4 -5 8 -11 8 -5 0 -37 18 -70 40 l-59 41 0 174 c0 96 4
175 8 175 5 0 18 -9 30 -20z m606 -82 c20 -265 26 -236 -57 -282 -60 -33 -81
-34 -73 -3 3 12 6 81 6 154 l0 131 48 35 c26 20 52 36 59 36 7 1 13 -25 17
-71z m-359 52 c3 -5 1 -10 -4 -10 -6 0 -11 5 -11 10 0 6 2 10 4 10 3 0 8 -4
11 -10z m1705 -129 c107 -18 163 -29 205 -41 22 -6 54 -15 70 -19 184 -51 438
-211 558 -354 68 -81 147 -186 147 -195 0 -5 9 -17 20 -27 11 -10 20 -22 20
-28 0 -5 9 -21 20 -37 44 -61 161 -293 260 -515 47 -105 60 -135 60 -140 0 -3
9 -27 21 -53 12 -26 25 -56 29 -67 4 -11 17 -41 29 -67 12 -26 21 -51 21 -56
0 -5 9 -27 20 -50 11 -22 20 -47 20 -55 0 -7 4 -17 8 -22 5 -6 19 -37 32 -70
13 -33 27 -64 32 -69 4 -6 8 -16 8 -23 0 -8 9 -33 20 -55 11 -23 20 -45 20
-50 0 -5 9 -30 21 -56 12 -26 24 -56 29 -67 4 -11 12 -32 19 -47 6 -16 15 -38
20 -50 5 -13 18 -44 30 -70 12 -26 21 -50 21 -53 0 -3 9 -25 20 -50 11 -25 29
-65 40 -90 11 -25 20 -47 20 -50 0 -2 12 -30 26 -62 30 -65 52 -118 64 -148 4
-11 17 -40 28 -65 11 -25 28 -63 37 -85 9 -22 28 -62 41 -89 13 -28 24 -53 24
-58 0 -4 18 -44 40 -88 l39 -82 -25 -23 c-22 -21 -81 -43 -88 -33 -1 1 -14 22
-29 45 -15 24 -27 47 -27 52 0 5 -9 26 -19 48 -18 34 -43 88 -102 221 -10 23
-29 63 -40 90 -12 26 -25 56 -29 67 -4 11 -18 43 -30 70 -12 28 -26 59 -30 70
-10 26 -24 63 -40 100 -7 17 -17 40 -21 53 -5 12 -13 33 -19 47 -5 14 -14 36
-20 50 -5 14 -15 37 -21 53 -13 30 -27 64 -42 102 -5 14 -13 33 -18 42 -5 10
-9 23 -9 28 0 6 -9 30 -20 52 -11 23 -20 48 -20 55 0 7 -4 21 -9 31 -9 17 -23
51 -40 95 -14 37 -33 81 -42 99 -5 10 -9 25 -9 33 0 8 -4 23 -9 33 -10 19 -30
67 -41 97 -4 11 -13 34 -20 50 -7 17 -16 39 -20 50 -7 19 -13 33 -56 133 -49
114 -149 321 -191 392 -14 25 -35 61 -45 80 -72 128 -271 355 -390 446 -32 24
-60 44 -62 44 -3 0 -31 17 -63 38 -55 36 -120 70 -208 107 -22 9 -48 21 -57
26 -10 5 -26 9 -36 9 -10 0 -22 4 -28 8 -5 5 -29 14 -54 21 -25 7 -58 16 -75
21 -98 26 -160 32 -311 27 -88 -4 -185 -11 -216 -17 -140 -25 -165 -29 -198
-35 -19 -4 -44 -10 -55 -15 -11 -5 -36 -11 -55 -15 -19 -3 -50 -8 -68 -12 -18
-3 -35 -9 -38 -14 -3 -5 -18 -9 -34 -9 -16 0 -32 -4 -35 -10 -3 -5 -19 -10
-35 -10 -16 0 -32 -4 -35 -10 -3 -5 -17 -10 -30 -10 -13 0 -27 -4 -30 -10 -3
-5 -17 -10 -31 -10 -13 0 -33 -4 -44 -10 -11 -6 -29 -14 -40 -20 -11 -6 -27
-10 -35 -10 -8 0 -24 -4 -35 -10 -11 -5 -29 -14 -40 -20 -11 -5 -27 -10 -35
-10 -8 0 -23 -4 -33 -9 -9 -5 -29 -14 -44 -20 -26 -10 -53 -21 -103 -42 -45
-19 -59 -15 -65 16 -4 17 -3 38 2 48 9 18 210 157 228 157 5 0 10 3 10 8 0 4
17 15 38 24 20 10 48 24 62 32 14 7 46 23 73 35 26 12 66 30 90 40 23 10 58
24 77 31 19 7 44 15 55 20 31 11 112 34 210 58 65 16 159 32 196 33 19 0 43 4
54 9 26 12 430 4 515 -9z m-2775 -40 c167 -28 299 -57 327 -72 10 -5 25 -9 33
-9 8 0 23 -4 33 -9 9 -5 37 -15 62 -22 25 -7 50 -15 55 -19 6 -3 28 -12 50
-19 47 -15 64 -21 130 -51 28 -12 59 -26 70 -30 11 -4 72 -33 135 -64 211
-104 240 -125 240 -175 0 -34 -7 -42 -29 -32 -9 5 -27 13 -41 18 -14 6 -45 20
-68 32 -24 11 -50 21 -58 21 -8 0 -23 5 -34 10 -11 6 -29 15 -40 20 -11 6 -27
10 -35 10 -8 0 -23 4 -33 9 -9 5 -30 14 -47 21 -16 7 -38 16 -47 21 -10 5 -29
9 -42 9 -14 0 -28 5 -31 10 -3 6 -17 10 -30 10 -13 0 -27 5 -30 10 -3 6 -17
10 -30 10 -13 0 -27 5 -30 10 -3 6 -19 10 -35 10 -16 0 -31 4 -34 9 -3 5 -20
11 -38 14 -18 3 -51 10 -73 17 -22 6 -58 15 -80 20 -22 5 -60 14 -85 20 -43
10 -105 21 -235 41 -109 17 -293 22 -358 10 -109 -21 -293 -75 -367 -108 -92
-40 -149 -69 -187 -95 -23 -15 -46 -28 -51 -28 -5 0 -17 -9 -27 -20 -10 -11
-22 -20 -28 -20 -12 0 -96 -68 -165 -134 -92 -87 -222 -256 -292 -380 -11 -20
-30 -53 -42 -73 -45 -79 -98 -186 -98 -199 0 -8 -4 -14 -10 -14 -5 0 -10 -7
-10 -15 0 -8 -9 -30 -20 -50 -11 -20 -20 -41 -20 -48 0 -7 -14 -39 -30 -72
-17 -33 -30 -63 -30 -68 0 -4 -9 -27 -20 -49 -11 -23 -20 -46 -20 -50 0 -5 -9
-28 -20 -50 -11 -23 -20 -46 -20 -50 0 -5 -9 -28 -20 -50 -11 -23 -20 -48 -20
-55 0 -7 -4 -21 -9 -31 -8 -16 -16 -34 -40 -94 -5 -13 -19 -50 -31 -83 -28
-75 -34 -93 -50 -130 -7 -16 -17 -40 -21 -52 -5 -13 -14 -35 -20 -50 -7 -16
-15 -37 -19 -48 -4 -11 -12 -32 -19 -47 -6 -16 -15 -38 -20 -50 -4 -13 -14
-36 -21 -53 -7 -16 -17 -40 -21 -52 -5 -13 -14 -35 -20 -50 -7 -16 -15 -37
-19 -48 -4 -11 -18 -42 -30 -70 -12 -27 -26 -59 -30 -70 -13 -33 -41 -96 -70
-160 -15 -33 -38 -82 -50 -110 -12 -27 -37 -82 -56 -120 -19 -39 -34 -75 -34
-80 0 -6 -11 -23 -24 -39 l-23 -30 -49 25 c-27 13 -51 32 -52 42 -2 10 33 100
78 200 46 100 89 198 97 217 8 19 25 58 38 85 23 51 46 104 71 163 8 17 20 47
28 65 7 17 21 49 30 70 9 20 23 54 32 75 9 20 23 52 30 70 8 17 21 49 30 70
24 55 45 104 54 127 4 11 17 41 29 67 12 26 21 50 21 53 0 2 14 34 30 70 17
36 30 70 30 75 0 5 8 24 18 42 10 18 26 53 36 78 10 25 25 61 33 80 8 19 21
49 28 65 7 17 22 51 34 78 12 26 30 68 42 95 54 123 187 393 228 465 11 20 30
54 42 74 71 126 196 290 299 392 129 130 208 185 360 257 107 50 111 51 155
65 22 6 49 15 60 20 11 4 34 10 50 14 17 3 50 11 75 16 140 33 181 37 355 34
99 -2 207 -9 240 -14z m-696 -358 c-13 -16 -27 -29 -31 -31 -5 -2 -8 -12 -8
-22 0 -19 -55 -131 -69 -140 -4 -3 -8 -22 -9 -44 -1 -21 -6 -43 -10 -50 -10
-12 -27 -85 -23 -100 1 -4 -2 -13 -7 -20 -5 -6 -8 -56 -8 -111 1 -83 5 -108
24 -145 l23 -45 -28 -22 c-15 -13 -33 -23 -39 -23 -7 0 -26 -13 -44 -30 -18
-16 -38 -30 -45 -30 -7 0 -15 -5 -17 -12 -6 -16 -37 -2 -44 19 -6 19 -13 37
-33 87 -19 45 -15 279 5 351 9 33 19 72 21 88 3 15 9 30 14 33 5 3 9 13 9 23
0 10 9 26 19 35 11 10 22 28 25 42 4 13 11 24 16 24 6 0 10 6 10 14 0 8 38 32
88 55 48 23 103 50 122 60 53 29 68 26 39 -6z m3666 -10 c25 -28 34 -63 15
-63 -5 0 -10 10 -10 23 0 12 -9 28 -20 35 -11 7 -20 17 -20 22 0 16 7 12 35
-17z m-3235 -39 c0 -8 -8 -18 -17 -21 -37 -14 -136 -98 -169 -142 -49 -67 -90
-150 -103 -212 -7 -30 -16 -74 -22 -98 -6 -29 -6 -71 2 -128 14 -106 5 -120
-43 -64 -32 38 -59 86 -87 154 -14 36 -14 118 0 154 46 111 76 154 164 232 71
62 134 101 215 131 48 18 60 17 60 -6z m3320 12 c0 -11 -19 -15 -25 -6 -3 5 1
10 9 10 9 0 16 -2 16 -4z m-431 -17 c20 -6 44 -15 53 -20 10 -5 24 -9 31 -9
21 0 123 -106 143 -148 36 -76 51 -185 46 -324 -3 -73 -4 -78 -43 -121 -40
-46 -108 -85 -184 -105 -66 -17 -179 -35 -200 -30 -22 4 -22 6 -5 108 14 80 6
294 -14 370 -46 176 -46 178 -77 244 -6 13 -8 29 -5 35 9 15 209 14 255 0z
m471 -3 c0 -11 -19 -15 -25 -6 -3 5 1 10 9 10 9 0 16 -2 16 -4z m-3120 -30 c0
-14 -4 -27 -9 -30 -5 -3 -11 -20 -14 -38 -3 -18 -11 -55 -17 -83 -30 -143 -32
-409 -4 -561 6 -29 4 -30 -46 -42 -28 -7 -68 -12 -88 -12 -40 1 -127 21 -138
33 -4 4 -15 7 -25 7 -31 0 -86 76 -94 128 -28 204 33 361 219 559 l59 63 79 0
c76 0 78 -1 78 -24z m2010 9 c0 -8 -15 -24 -33 -36 -18 -12 -48 -42 -67 -68
-19 -25 -37 -48 -40 -51 -13 -13 -70 -135 -70 -151 0 -10 -4 -21 -10 -24 -5
-3 -10 -17 -10 -30 0 -13 -4 -26 -9 -29 -4 -3 -11 -25 -15 -48 -4 -24 -12 -65
-17 -93 -6 -27 -13 -77 -17 -110 -7 -61 -24 -81 -30 -35 -2 14 -8 30 -14 37
-5 6 -10 81 -11 165 -2 160 1 175 57 297 16 37 113 128 149 141 50 19 81 32
97 41 24 13 40 10 40 -6z m1150 1 c0 -11 -19 -15 -25 -6 -3 5 1 10 9 10 9 0
16 -2 16 -4z m-120 -27 c0 -5 -4 -9 -10 -9 -5 0 -10 7 -10 16 0 8 5 12 10 9 6
-3 10 -10 10 -16z m167 -4 c9 -25 -2 -27 -22 -5 -17 18 -17 20 -1 20 9 0 19
-7 23 -15z m-2419 -36 c2 -5 12 -9 23 -9 10 0 19 -4 19 -10 0 -5 9 -10 20 -10
16 0 20 -7 20 -30 0 -16 5 -30 10 -30 6 0 10 -13 10 -30 0 -16 5 -30 10 -30 6
0 10 -11 10 -25 0 -14 -4 -25 -10 -25 -5 0 -10 -7 -10 -15 0 -8 5 -15 10 -15
6 0 10 -18 10 -40 0 -25 5 -40 13 -41 10 0 10 -2 0 -6 -7 -2 -13 -11 -13 -19
0 -8 6 -14 13 -15 10 0 10 -2 0 -6 -7 -2 -13 -11 -13 -19 0 -8 6 -14 13 -15
10 0 10 -2 0 -6 -16 -6 -17 -33 -1 -33 9 0 9 -3 0 -12 -7 -7 -12 -36 -12 -64
0 -29 -4 -56 -10 -59 -5 -3 -10 -26 -10 -51 0 -24 -4 -44 -10 -44 -5 0 -10 -8
-10 -18 0 -10 -10 -28 -23 -40 -23 -22 -24 -22 -41 -3 -11 12 -15 27 -11 40 3
11 0 29 -7 41 -11 17 -11 22 1 30 12 7 12 11 2 23 -8 11 -9 17 -1 22 8 5 8 10
0 20 -8 10 -8 15 0 20 8 5 8 10 0 20 -8 10 -8 15 0 20 8 5 8 10 0 20 -8 9 -8
15 0 20 14 8 13 48 -2 63 -9 9 -9 12 0 12 7 0 12 7 12 15 0 8 -5 15 -12 15 -9
0 -9 3 0 12 16 16 15 68 0 69 -10 0 -10 2 0 6 14 6 17 73 2 73 -5 0 -10 23
-10 50 0 28 -4 50 -10 50 -5 0 -10 14 -10 30 0 17 -4 30 -10 30 -5 0 -10 9
-10 21 0 17 4 19 23 13 12 -3 24 -11 25 -15z m1326 0 c-3 -5 -10 -7 -15 -3 -5
3 -7 10 -3 15 3 5 10 7 15 3 5 -3 7 -10 3 -15z m946 0 c0 -5 -4 -9 -10 -9 -5
0 -10 7 -10 16 0 8 5 12 10 9 6 -3 10 -10 10 -16z m-1570 -6 c0 -5 -6 -28 -14
-53 -28 -89 -40 -168 -50 -325 -3 -47 16 -225 30 -283 9 -35 14 -65 12 -67 -8
-7 -49 17 -54 32 -3 10 -10 27 -14 38 -27 65 -42 228 -35 384 3 74 10 142 16
152 5 10 9 26 9 37 0 25 60 92 83 92 9 0 17 -3 17 -7z m34 -27 c-3 -15 -8 -25
-11 -23 -2 3 -1 17 3 31 3 15 8 25 11 23 2 -3 1 -17 -3 -31z m1706 19 c0 -8
-4 -15 -10 -15 -5 0 -10 7 -10 15 0 8 5 15 10 15 6 0 10 -7 10 -15z m-2242
-21 c4 2 16 -2 27 -10 18 -14 18 -14 -3 -14 -20 0 -22 -5 -22 -51 0 -52 15
-79 44 -79 9 0 16 -4 16 -9 0 -6 19 -12 43 -14 l42 -4 -50 -1 c-44 -2 -52 -6
-71 -35 -22 -32 -31 -97 -13 -97 5 0 9 -9 9 -20 0 -13 7 -20 20 -20 11 0 20
-5 20 -11 0 -6 9 -9 19 -6 10 2 25 1 32 -4 16 -10 5 -12 -41 -10 -18 1 -31 -8
-48 -33 -22 -32 -23 -38 -10 -73 15 -45 31 -63 53 -63 12 0 10 -6 -9 -25 -14
-14 -37 -25 -51 -25 -14 0 -25 -4 -25 -10 0 -5 -7 -10 -15 -10 -9 0 -15 9 -15
25 0 14 5 25 10 25 6 0 10 22 10 49 0 28 4 52 9 55 10 7 6 242 -5 316 -3 25
-12 48 -18 52 -8 6 -7 8 2 8 6 0 12 7 12 15 0 8 -5 15 -11 15 -5 0 -9 8 -7 18
2 11 -3 26 -10 35 -22 26 -4 41 24 22 14 -9 28 -14 32 -11z m392 7 c0 -6 -4
-13 -10 -16 -5 -3 -10 -21 -10 -40 0 -19 -4 -36 -9 -39 -5 -3 -12 -39 -16 -80
-6 -64 -9 -74 -23 -69 -9 4 -23 15 -30 25 -10 13 -26 18 -62 18 -49 0 -71 12
-49 26 7 4 29 6 49 6 28 -1 44 5 64 24 30 31 35 86 10 112 -15 14 -15 17 2 29
20 15 84 18 84 4z m1700 -6 c0 -8 -4 -15 -10 -15 -5 0 -10 7 -10 15 0 8 5 15
10 15 6 0 10 -7 10 -15z m182 -22 c10 -9 18 -22 18 -30 0 -7 4 -21 9 -31 5 -9
14 -37 21 -62 6 -25 16 -59 21 -76 13 -42 11 -273 -2 -315 -16 -52 -51 -119
-61 -119 -19 0 -98 61 -98 75 0 8 3 15 8 15 10 0 41 73 58 135 16 60 20 370 4
380 -11 7 -14 45 -3 45 3 0 15 -7 25 -17z m-2984 -21 c2 -7 -3 -12 -12 -12 -9
0 -16 7 -16 16 0 17 22 14 28 -4z m2820 -10 c2 -12 -1 -22 -7 -22 -6 0 -11 4
-11 9 0 5 -3 17 -7 27 -4 12 -2 15 8 12 8 -2 15 -14 17 -26z m-1984 3 c16 -12
21 -12 30 -1 7 8 21 10 41 5 17 -3 22 -7 13 -8 -22 -1 -24 -21 -3 -21 8 0 15
-7 15 -16 0 -8 5 -12 11 -8 6 3 9 17 6 30 -5 28 3 36 23 24 11 -7 11 -12 2
-23 -10 -12 -9 -16 4 -21 13 -5 14 -9 5 -20 -15 -18 -187 -22 -207 -5 -18 15
-18 39 0 39 9 0 12 7 9 20 -6 24 22 27 51 5z m-724 -101 c0 -13 5 -24 11 -24
7 0 9 -23 6 -67 -7 -91 -17 -143 -28 -143 -5 0 -9 -9 -9 -20 0 -11 -4 -20 -10
-20 -5 0 -10 -7 -10 -15 0 -14 -17 -37 -62 -83 -33 -34 -49 -44 -64 -38 -8 3
-14 -1 -14 -9 0 -8 -9 -15 -19 -15 -11 0 -21 -4 -23 -9 -1 -4 -12 1 -23 12
-20 19 -20 19 1 13 18 -6 20 -3 16 24 -3 21 0 30 10 30 10 0 13 9 10 30 -3 18
0 30 7 30 6 0 11 9 11 20 0 11 5 20 10 20 6 0 10 9 10 20 0 11 6 20 13 20 9 0
12 10 9 30 -3 22 0 30 11 30 10 0 13 6 10 20 -3 11 0 20 6 20 6 0 11 7 11 16
0 18 23 44 39 44 6 0 8 7 5 15 -6 15 17 45 35 45 7 0 7 10 0 30 -6 17 -15 30
-20 30 -5 0 -9 8 -9 17 0 13 8 9 30 -15 17 -18 30 -44 30 -58z m1610 71 c0 -8
-7 -15 -15 -15 -16 0 -20 12 -8 23 11 12 23 8 23 -8z m-496 -16 c-3 -5 -10 -7
-15 -3 -5 3 -7 10 -3 15 3 5 10 7 15 3 5 -3 7 -10 3 -15z m713 -35 c-9 -9 -28
6 -21 18 4 6 10 6 17 -1 6 -6 8 -13 4 -17z m903 1 c0 -14 -4 -25 -10 -25 -5 0
-10 11 -10 25 0 14 5 25 10 25 6 0 10 -11 10 -25z m-1626 -17 c-12 -20 -4
-362 9 -370 9 -6 9 -8 -1 -8 -9 0 -12 -20 -11 -75 1 -42 -1 -79 -5 -82 -3 -4
-6 21 -6 55 0 36 -4 62 -10 62 -15 0 -12 397 3 421 6 10 15 15 19 13 5 -3 5
-10 2 -16z m-866 -13 c15 -33 16 -245 1 -282 -26 -63 -35 -80 -74 -135 -52
-73 -99 -81 -61 -10 19 35 56 144 56 165 0 10 4 25 9 35 12 23 31 151 31 207
0 51 19 61 38 20z m2512 -41 c0 -21 -17 -17 -23 5 -3 14 -1 18 9 14 8 -3 14
-11 14 -19z m-1890 -42 c23 -25 24 -29 7 -46 -31 -31 -97 -49 -97 -26 0 15
-50 12 -51 -2 0 -10 -2 -10 -6 0 -2 6 -11 12 -20 12 -14 0 -43 23 -43 35 0 21
34 35 84 35 31 0 56 4 56 8 0 16 51 5 70 -16z m1187 8 c-5 -31 -17 -36 -17 -7
0 15 4 27 10 27 5 0 9 -9 7 -20z m703 -25 c0 -33 2 -35 35 -35 26 0 35 4 36
18 0 14 2 14 9 -3 12 -28 12 -85 0 -85 -15 0 -12 -30 3 -31 10 0 10 -2 0 -6
-7 -2 -13 -18 -13 -34 0 -16 -4 -29 -8 -29 -5 0 -15 -22 -22 -50 -10 -37 -18
-50 -32 -50 -10 0 -18 5 -18 10 0 6 -6 10 -13 10 -25 0 -35 20 -23 46 6 13 14
24 19 24 4 0 7 11 7 24 0 14 5 28 10 31 6 4 8 21 5 38 -11 65 -14 157 -4 157
5 0 9 -16 9 -35z m-1241 -7 c-1 -31 -1 -31 -8 -8 -5 14 -6 28 -4 33 9 15 13 6
12 -25z m-1679 -33 c0 -8 -7 -15 -15 -15 -8 0 -15 7 -15 15 0 8 7 15 15 15 8
0 15 -7 15 -15z m1107 -67 c2 -109 13 -212 24 -222 14 -15 11 -46 -4 -46 -7 0
-32 9 -55 20 -31 15 -61 20 -127 20 -84 0 -86 1 -83 23 3 20 9 22 88 27 110 6
123 14 123 74 -1 64 -17 76 -97 76 -36 0 -67 4 -71 9 -9 16 25 42 47 35 35
-11 103 5 129 31 13 13 24 24 24 24 0 1 1 -32 2 -71z m553 52 c0 -10 16 -35
35 -54 19 -20 35 -42 35 -51 0 -8 5 -15 10 -15 6 0 10 -9 10 -20 0 -11 5 -20
10 -20 6 0 10 -9 10 -20 0 -11 5 -20 10 -20 6 0 10 -18 10 -39 0 -26 5 -41 16
-45 8 -3 12 -10 9 -16 -9 -15 -55 -12 -55 3 0 9 -9 12 -29 9 -22 -3 -33 1 -43
17 -7 12 -19 21 -26 21 -31 0 -42 28 -42 108 0 54 4 82 12 84 7 3 11 19 10 41
-2 20 2 37 8 37 5 0 10 -9 10 -20z m370 -125 c0 -8 -4 -15 -10 -15 -5 0 -10 7
-10 15 0 8 5 15 10 15 6 0 10 -7 10 -15z m-996 -11 c13 -33 -3 -53 -49 -60
-58 -8 -110 2 -140 28 -41 35 -17 48 90 48 77 0 94 -3 99 -16z m996 -69 c0 -8
-4 -15 -10 -15 -5 0 -10 7 -10 15 0 8 5 15 10 15 6 0 10 -7 10 -15z m190 -10
c0 -8 -4 -17 -10 -20 -6 -4 -10 5 -10 20 0 15 4 24 10 20 6 -3 10 -12 10 -20z
m-260 -50 c0 -8 -7 -15 -15 -15 -8 0 -15 7 -15 15 0 8 7 15 15 15 8 0 15 -7
15 -15z m38 3 c-6 -18 -28 -21 -28 -4 0 9 7 16 16 16 9 0 14 -5 12 -12z m220
-6 c2 -7 -3 -12 -12 -12 -9 0 -16 7 -16 16 0 17 22 14 28 -4z m-3153 -53 c43
-55 142 -129 215 -161 25 -12 52 -24 61 -29 9 -4 34 -11 55 -14 22 -4 46 -9
54 -12 51 -18 368 -28 460 -14 41 6 100 13 130 16 66 7 92 10 234 29 60 8 115
12 122 9 7 -2 19 -15 28 -27 13 -21 13 -26 -7 -59 -25 -41 -121 -117 -148
-117 -10 0 -20 -4 -23 -9 -3 -5 -18 -11 -33 -14 -16 -3 -62 -13 -103 -21 -41
-9 -103 -16 -137 -16 -34 0 -64 -4 -68 -9 -10 -18 -362 3 -495 29 -30 6 -70
13 -88 17 -18 3 -35 9 -38 14 -3 5 -16 9 -30 9 -13 0 -24 5 -24 10 0 6 -9 10
-19 10 -22 0 -109 44 -178 91 -66 44 -203 180 -203 201 0 9 17 29 37 43 39 26
73 33 73 14 0 -6 6 -17 14 -25 8 -7 23 -24 33 -36 48 -59 61 -55 15 3 -29 37
-52 72 -52 78 0 11 47 40 65 40 6 0 28 -23 50 -50z m3810 27 c16 -14 32 -23
36 -20 7 4 71 -27 97 -48 24 -20 11 -44 -55 -109 -89 -87 -191 -155 -298 -199
-16 -7 -38 -16 -47 -21 -10 -5 -27 -9 -37 -9 -11 0 -22 -4 -25 -9 -6 -9 -45
-18 -126 -27 -25 -3 -49 -10 -54 -15 -6 -5 -49 -9 -97 -9 -48 0 -91 -5 -94
-10 -10 -16 -350 4 -475 28 -58 12 -196 84 -237 125 -41 41 -49 81 -20 102 22
16 137 21 151 8 4 -5 22 -9 39 -10 18 -1 59 -7 92 -12 196 -30 466 -42 580
-25 22 3 51 7 65 8 14 1 30 4 35 7 6 4 35 12 65 19 105 25 241 108 317 195 26
30 51 55 54 55 3 0 19 -11 34 -24z m-977 -3 c-10 -2 -28 -2 -40 0 -13 2 -5 4
17 4 22 1 32 -1 23 -4z m-2641 -9 c-3 -3 -12 -4 -19 -1 -8 3 -5 6 6 6 11 1 17
-2 13 -5z m3383 2 c0 -3 -4 -8 -10 -11 -5 -3 -10 -1 -10 4 0 6 5 11 10 11 6 0
10 -2 10 -4z m-4253 -28 c-3 -8 -6 -5 -6 6 -1 11 2 17 5 13 3 -3 4 -12 1 -19z
m2587 11 c107 -20 109 -21 102 -109 -3 -41 -8 -135 -12 -208 -6 -114 -9 -132
-23 -130 -13 3 -16 21 -18 115 -2 180 -11 240 -39 258 -27 17 -184 22 -184 5
0 -6 32 -10 75 -10 43 0 75 -4 75 -10 0 -5 9 -10 20 -10 17 0 20 -6 19 -37 -1
-57 -16 -146 -18 -107 -1 23 -7 33 -21 37 -11 3 -20 1 -20 -5 0 -17 -30 -40
-45 -34 -8 3 -15 1 -15 -5 0 -14 -26 -39 -39 -39 -6 0 -11 -10 -11 -22 0 -19
-2 -20 -10 -8 -5 8 -10 32 -10 53 0 20 -4 37 -10 37 -6 0 -10 31 -10 74 0 41
-4 77 -9 80 -16 11 0 41 27 52 94 37 97 38 176 23z m-1593 -25 c74 -27 94 -32
137 -33 14 -1 22 -7 22 -18 0 -12 3 -14 8 -6 4 7 23 10 47 8 122 -13 194 -17
319 -16 76 1 141 3 145 6 4 2 34 7 67 10 32 3 75 10 95 15 20 6 56 12 80 14
24 3 61 12 83 21 25 11 42 13 48 7 10 -10 -88 -63 -142 -77 -40 -10 -100 -37
-100 -46 0 -4 -19 -9 -42 -12 -24 -3 -63 -11 -88 -17 -69 -19 -221 -25 -218
-8 2 7 -7 14 -19 16 -13 2 -23 -1 -23 -7 0 -15 -30 -14 -31 2 0 10 -2 10 -6 0
-6 -15 -33 -17 -33 -3 0 6 -27 10 -60 10 -33 0 -60 4 -60 8 0 5 -13 7 -28 4
-18 -2 -35 2 -46 13 -9 10 -30 18 -46 19 -17 1 -38 9 -49 18 -10 9 -33 19 -50
23 -17 3 -33 11 -36 16 -4 5 -14 9 -24 9 -10 0 -28 11 -41 25 -22 24 -23 25
-3 25 11 0 53 -12 94 -26z m2134 -4 c33 -6 68 -16 77 -21 10 -5 31 -9 46 -9
16 0 32 -3 35 -6 4 -4 30 -9 58 -11 28 -2 60 -7 72 -11 27 -9 334 -8 401 1 27
4 76 12 110 18 34 6 73 12 89 14 15 1 30 5 34 8 3 4 16 7 28 7 12 0 25 3 29 7
6 7 90 31 109 33 4 0 7 -4 7 -8 0 -8 -92 -52 -109 -52 -5 0 -11 -7 -15 -15 -3
-8 -14 -15 -24 -15 -10 0 -24 -6 -30 -12 -10 -10 -15 -10 -22 2 -8 12 -10 12
-16 -3 -3 -9 -16 -17 -29 -17 -12 0 -28 -7 -35 -15 -7 -9 -20 -15 -29 -13 -9
1 -21 -1 -28 -5 -6 -4 -14 -3 -18 2 -3 6 -20 2 -42 -10 -29 -16 -38 -18 -44
-7 -7 10 -9 10 -9 1 0 -7 -7 -13 -15 -13 -8 0 -15 6 -16 13 0 10 -2 10 -6 0
-6 -16 -33 -17 -33 -2 0 6 -7 3 -16 -5 -8 -9 -22 -16 -29 -16 -7 0 -21 7 -29
16 -9 8 -16 11 -16 5 0 -15 -30 -14 -31 2 0 10 -2 10 -6 0 -6 -15 -33 -17 -33
-3 0 6 -18 10 -40 10 -22 0 -40 5 -40 10 0 7 -24 9 -65 7 -42 -3 -63 -1 -62 7
1 6 -11 9 -32 7 -22 -2 -31 1 -27 8 5 7 -5 11 -27 11 -19 0 -40 7 -48 16 -7 8
-21 13 -30 11 -10 -3 -23 1 -30 9 -6 8 -20 14 -31 14 -10 0 -21 7 -24 15 -4 8
-12 15 -20 15 -8 0 -14 8 -14 18 0 11 3 13 8 6 4 -7 34 -17 67 -24z m1924 -48
c0 -64 -25 -142 -50 -158 -5 -3 -7 -9 -4 -14 3 -5 -4 -24 -15 -42 -11 -18 -20
-38 -20 -45 0 -7 -11 -28 -24 -48 -14 -21 -22 -43 -19 -52 5 -13 2 -15 -11
-10 -15 6 -17 3 -12 -18 5 -19 2 -25 -10 -25 -11 0 -15 -6 -11 -19 3 -11 -3
-28 -14 -40 -11 -11 -19 -29 -19 -41 0 -11 -4 -20 -10 -20 -5 0 -10 -9 -10
-20 0 -11 -4 -20 -10 -20 -5 0 -10 -14 -10 -31 0 -17 -4 -28 -10 -24 -5 3 -10
-1 -10 -9 0 -9 -4 -16 -10 -16 -5 0 -10 -9 -10 -20 0 -11 -7 -20 -16 -20 -9 0
-14 -7 -12 -17 1 -10 -5 -29 -15 -43 -9 -13 -17 -30 -17 -37 0 -15 -19 -51
-38 -72 -8 -8 -11 -22 -9 -33 3 -10 2 -16 -2 -14 -4 3 -13 -10 -20 -27 -8 -18
-21 -40 -29 -49 -8 -10 -12 -24 -9 -33 4 -8 2 -15 -3 -15 -6 0 -10 -9 -10 -19
0 -10 -7 -22 -16 -25 -9 -4 -14 -13 -10 -21 3 -8 1 -15 -4 -15 -6 0 -10 -9
-10 -20 0 -11 -4 -20 -10 -20 -5 0 -10 -8 -11 -17 0 -10 -9 -31 -20 -48 -10
-16 -21 -37 -25 -45 -10 -27 -24 -55 -33 -70 -17 -26 -106 -215 -106 -225 -1
-5 -8 -21 -17 -35 -9 -14 -25 -45 -36 -70 -37 -83 -52 -115 -62 -130 -21 -33
-100 -210 -100 -223 0 -8 -7 -17 -15 -21 -8 -3 -15 -11 -15 -18 0 -17 -110
-241 -123 -249 -12 -8 -47 1 -47 12 0 5 -9 9 -19 9 -11 0 -21 8 -23 18 -4 17
30 94 45 100 4 2 7 12 7 23 0 10 5 19 10 19 6 0 10 9 10 20 0 11 5 20 10 20 6
0 10 9 10 20 0 11 5 20 10 20 6 0 10 13 10 28 0 16 8 34 20 42 11 8 20 26 20
40 0 14 9 32 20 40 12 8 20 26 20 42 0 15 5 28 10 28 6 0 10 7 10 16 0 8 7 22
15 30 8 9 15 12 15 8 0 -5 5 -3 12 4 8 8 8 15 -2 26 -10 13 -9 17 4 22 9 3 16
16 16 28 0 29 35 92 50 88 7 -1 9 5 5 17 -3 11 -1 22 5 26 5 3 10 1 10 -4 0
-6 5 -11 11 -11 8 0 8 5 -1 15 -7 8 -9 22 -6 31 6 16 8 15 21 -2 12 -15 14
-16 15 -4 0 9 -5 21 -12 28 -9 9 -9 15 0 24 9 9 12 9 12 0 0 -7 5 -12 11 -12
8 0 8 5 -1 15 -10 12 -7 25 15 71 25 50 28 54 41 37 17 -22 19 -1 2 26 -9 15
-7 24 8 47 11 16 103 196 204 399 101 204 188 372 192 373 4 2 8 12 8 22 0 10
3 20 8 22 6 3 80 146 241 464 25 50 49 89 53 87 4 -2 7 -34 7 -71z m-319 -32
c0 -16 -4 -30 -10 -30 -5 0 -10 -9 -10 -20 0 -11 -4 -28 -9 -38 -5 -9 -14 -30
-21 -47 -7 -16 -16 -38 -21 -47 -5 -10 -9 -25 -9 -33 0 -8 -4 -15 -10 -15 -5
0 -10 -9 -10 -20 0 -11 -4 -28 -9 -38 -5 -9 -14 -30 -21 -47 -7 -16 -16 -38
-21 -47 -5 -10 -9 -25 -9 -33 0 -8 -4 -15 -10 -15 -5 0 -10 -11 -10 -24 0 -14
-4 -28 -10 -31 -5 -3 -10 -15 -10 -26 0 -10 -4 -19 -10 -19 -5 0 -10 -11 -10
-25 0 -33 -24 -44 -69 -33 -117 30 -161 39 -281 58 -142 23 -284 33 -465 34
-207 1 -418 -10 -450 -24 -11 -5 -44 -12 -72 -15 -132 -13 -159 -17 -167 -26
-6 -5 -21 -9 -35 -9 -29 0 -51 35 -51 81 0 15 -4 31 -10 34 -5 3 -10 16 -10
29 0 12 -5 27 -11 33 -27 27 4 33 162 33 87 0 159 -3 159 -8 0 -15 -62 -34
-133 -42 -52 -5 -8 -8 158 -8 127 -1 247 2 268 7 22 6 39 5 43 -1 3 -5 11 -5
19 2 7 6 16 7 19 2 6 -10 469 -8 621 2 163 11 181 22 281 157 55 75 152 198
164 209 3 3 16 20 29 38 29 41 51 42 51 2z m-4347 -7 c30 -37 67 -93 67 -99 0
-3 13 -24 28 -47 15 -23 39 -63 52 -89 25 -48 40 -61 40 -33 0 8 -4 15 -10 15
-5 0 -10 9 -10 20 0 11 -4 20 -10 20 -5 0 -10 12 -10 26 0 15 -10 35 -22 45
-14 13 -17 19 -7 19 8 0 21 -9 29 -20 8 -11 20 -20 28 -20 7 0 22 -9 34 -20
12 -11 28 -20 35 -20 7 0 13 -4 13 -8 0 -5 23 -19 50 -32 28 -13 50 -27 50
-32 0 -4 7 -8 15 -8 8 0 30 -9 50 -20 20 -11 44 -20 55 -20 11 0 20 -6 20 -14
0 -9 8 -12 24 -9 15 3 38 -4 62 -21 39 -26 60 -33 49 -17 -10 17 13 22 28 7 8
-9 26 -14 40 -13 14 1 25 -2 24 -7 -2 -7 -50 -12 -174 -15 -14 -1 -21 -6 -17
-14 6 -15 128 -13 224 3 30 6 113 12 184 15 72 3 134 9 140 15 6 6 14 6 24 -2
10 -9 18 -9 32 0 13 8 21 8 26 1 4 -8 9 -8 17 0 6 6 19 11 28 11 10 0 19 5 21
10 2 6 38 11 81 11 42 1 77 5 77 10 0 5 18 9 39 9 22 0 41 4 43 9 2 5 21 10
43 11 60 3 65 1 65 -16 0 -12 7 -15 30 -12 17 3 33 1 36 -4 7 -11 84 -10 84 1
0 5 12 12 28 14 15 2 -17 5 -70 6 -80 1 -98 4 -98 16 0 10 10 15 30 15 17 0
30 5 30 10 0 6 10 10 22 10 23 0 81 16 110 31 10 5 28 9 40 8 13 0 17 -3 11
-6 -7 -2 -13 -17 -13 -33 0 -16 -4 -30 -10 -32 -5 -1 -12 -28 -16 -58 -3 -30
-10 -59 -15 -65 -5 -5 -9 -19 -9 -32 0 -13 -4 -31 -9 -41 -5 -9 -12 -25 -15
-34 -6 -19 -45 -25 -62 -9 -5 5 -29 12 -54 15 -25 4 -74 11 -110 16 -178 26
-285 33 -505 34 -287 1 -480 -19 -705 -74 -93 -22 -130 -24 -130 -6 0 9 -4 24
-9 34 -5 9 -13 28 -19 42 -5 14 -19 46 -31 72 -12 26 -21 52 -21 58 0 6 -4 18
-9 28 -11 22 -31 70 -64 152 -5 14 -13 33 -18 42 -5 10 -9 22 -9 28 0 6 -9 29
-19 53 -10 23 -21 52 -24 65 -7 31 20 29 46 -5z m1972 15 c2 -7 6 -93 10 -190
l6 -178 -38 -17 c-21 -10 -44 -24 -51 -30 -35 -34 -46 -6 -32 78 6 35 12 69
11 74 0 6 -1 52 -2 103 -2 85 0 95 22 120 46 51 66 62 74 40z m413 -30 c12
-24 24 -68 27 -98 8 -85 23 -201 31 -242 11 -65 1 -74 -48 -40 -24 16 -51 32
-61 35 -16 6 -18 16 -12 94 3 49 7 100 9 116 2 15 4 61 5 102 1 88 16 98 49
33z m-2530 -34 c-3 -23 0 -34 9 -34 8 0 13 -13 13 -38 0 -21 7 -47 15 -59 8
-12 12 -28 9 -36 -3 -8 -1 -18 5 -22 6 -3 11 -18 11 -33 l0 -27 -14 30 c-30
67 -37 81 -55 110 -11 17 -20 38 -20 48 -1 9 -5 17 -11 17 -5 0 -10 9 -10 19
0 11 -6 21 -12 24 -10 4 -10 7 0 18 9 9 12 10 12 1 0 -7 7 -12 15 -12 8 0 15
9 15 21 0 12 4 17 11 13 6 -3 9 -22 7 -40z m4603 13 c-13 -13 -26 -3 -16 12 3
6 11 8 17 5 6 -4 6 -10 -1 -17z m-4749 -42 c-3 -18 0 -25 12 -25 9 0 16 -8 16
-20 0 -11 5 -20 10 -20 6 0 10 -8 10 -18 0 -9 9 -23 20 -30 11 -7 20 -21 20
-32 0 -11 5 -20 10 -20 6 0 10 -9 10 -20 0 -11 3 -20 8 -20 4 0 18 -25 32 -55
14 -30 28 -55 33 -55 4 0 15 -18 24 -40 10 -22 21 -40 25 -40 5 0 8 -6 8 -14
0 -17 42 -100 53 -104 4 -2 7 -12 7 -23 0 -10 5 -19 10 -19 6 0 10 -6 10 -13
0 -18 24 -67 33 -67 4 0 7 -9 7 -20 0 -11 5 -20 10 -20 6 0 10 -9 10 -20 0
-11 5 -20 10 -20 6 0 10 -9 10 -20 0 -11 5 -20 10 -20 6 0 10 -9 10 -20 0 -11
5 -20 10 -20 6 0 10 -9 10 -20 0 -11 5 -20 10 -20 6 0 10 -9 10 -20 0 -11 5
-20 10 -20 6 0 10 -9 10 -20 0 -11 5 -20 10 -20 6 0 10 -9 10 -20 0 -11 5 -20
10 -20 6 0 10 -9 10 -20 0 -11 5 -20 10 -20 6 0 10 -9 10 -20 0 -11 5 -20 10
-20 6 0 10 -9 10 -20 0 -11 5 -20 10 -20 6 0 10 -9 10 -19 0 -11 4 -21 8 -23
4 -1 29 -46 55 -98 26 -52 53 -106 61 -120 25 -47 65 -126 203 -400 75 -151
141 -276 145 -278 4 -2 8 -12 8 -23 0 -10 5 -19 10 -19 6 0 10 -9 10 -20 0
-11 4 -20 8 -20 12 0 33 -50 27 -61 -4 -5 -15 -9 -25 -9 -10 0 -21 -4 -24 -9
-3 -4 -19 -11 -35 -14 -25 -5 -36 -1 -63 26 -18 18 -33 34 -33 37 -1 7 -42 88
-76 149 -16 30 -28 60 -25 67 2 6 -11 27 -30 45 -21 20 -30 37 -25 42 6 6 2
17 -10 30 -10 11 -19 30 -19 42 0 12 -9 30 -20 40 -11 10 -20 28 -20 40 0 12
-9 30 -20 40 -11 10 -20 25 -20 34 0 9 -49 115 -110 236 -60 121 -110 224
-110 230 0 16 -146 304 -165 325 -11 13 -13 20 -5 25 8 5 6 14 -7 29 -25 29
-43 63 -43 81 0 8 -9 30 -20 50 -11 20 -20 42 -20 50 0 8 -4 15 -9 15 -8 0
-24 37 -22 51 0 4 -31 69 -69 145 -39 76 -70 144 -70 151 0 7 -4 13 -10 13 -5
0 -10 13 -10 28 0 16 -8 34 -20 42 -11 8 -20 26 -20 40 0 14 -5 31 -11 37 -8
8 -8 13 0 17 6 4 11 2 11 -3 0 -6 9 -11 19 -11 17 0 19 5 14 35 -3 20 -1 35 4
35 6 0 8 -11 5 -25z m4738 -44 c0 -12 -20 -25 -27 -18 -7 7 6 27 18 27 5 0 9
-4 9 -9z m-372 -100 c-13 -21 -88 -65 -96 -56 -7 7 29 45 43 45 7 0 18 7 25
15 7 8 19 15 26 15 11 0 12 -4 2 -19z m319 -13 c-3 -8 -6 -5 -6 6 -1 11 2 17
5 13 3 -3 4 -12 1 -19z m-2327 -24 c0 -13 -4 -24 -8 -24 -11 0 -33 46 -25 53
12 12 33 -7 33 -29z m444 0 c9 -3 16 -10 16 -16 0 -14 -43 -5 -48 10 -4 13 7
15 32 6z m60 -20 c25 -9 19 -24 -9 -24 -16 0 -25 6 -25 15 0 16 9 19 34 9z
m-484 -29 c0 -8 -8 -15 -19 -15 -10 0 -24 7 -31 15 -11 13 -8 15 19 15 21 0
31 -5 31 -15z m560 0 c0 -8 -7 -15 -15 -15 -8 0 -15 7 -15 15 0 8 7 15 15 15
8 0 15 -7 15 -15z m1260 -5 c0 -5 -7 -10 -15 -10 -8 0 -15 5 -15 10 0 6 7 10
15 10 8 0 15 -4 15 -10z m-40 -8 c0 -13 -12 -22 -22 -16 -10 6 -1 24 13 24 5
0 9 -4 9 -8z m-42 -30 c2 -7 -3 -12 -12 -12 -9 0 -16 7 -16 16 0 17 22 14 28
-4z m-1510 -51 c9 -5 30 -15 47 -22 38 -18 96 -76 114 -114 7 -17 17 -38 22
-47 5 -10 9 -25 9 -33 0 -8 4 -23 9 -33 28 -52 40 -275 19 -377 -9 -45 -9 -60
0 -63 7 -2 12 -8 12 -13 0 -5 27 -50 60 -99 33 -49 60 -94 60 -100 0 -5 4 -10
8 -10 5 0 15 -12 23 -27 7 -16 35 -60 61 -100 27 -40 48 -77 48 -83 0 -5 4
-10 8 -10 5 0 15 -12 23 -27 8 -16 22 -37 32 -47 9 -11 17 -26 17 -33 0 -7 5
-13 10 -13 6 0 10 -6 10 -13 0 -7 8 -22 18 -33 16 -18 25 -33 56 -88 6 -11 19
-29 29 -40 9 -11 17 -24 17 -28 0 -5 9 -18 20 -30 11 -12 20 -28 20 -35 0 -7
5 -13 10 -13 6 0 10 -5 10 -11 0 -5 18 -37 40 -69 22 -32 40 -64 40 -69 0 -6
4 -11 8 -11 5 0 15 -12 23 -27 8 -16 22 -37 32 -47 9 -11 17 -26 17 -33 0 -7
5 -13 10 -13 6 0 10 -6 10 -13 0 -7 9 -23 20 -35 21 -22 27 -76 10 -87 -5 -3
-10 -26 -10 -51 l0 -44 -1097 -2 c-604 -1 -1110 -1 -1125 0 -30 2 -31 1 -22
-22 7 -18 69 -22 80 -5 4 8 9 8 17 0 7 -7 14 -7 23 0 8 7 14 7 19 -1 5 -8 10
-8 20 0 10 8 15 8 20 0 5 -8 10 -8 20 0 10 8 15 8 20 0 5 -8 11 -7 22 1 11 10
19 10 33 1 13 -8 21 -8 25 -1 5 7 11 6 20 -1 10 -8 15 -8 20 0 5 8 10 8 20 0
9 -8 15 -8 20 0 9 14 52 13 58 -2 3 -10 7 -10 19 0 12 9 18 10 23 2 5 -8 10
-9 18 -1 7 7 15 7 25 -1 10 -9 15 -9 22 1 5 10 9 10 15 2 5 -9 10 -9 21 0 10
8 14 8 14 0 0 -6 7 -11 15 -11 8 0 15 5 15 10 0 6 42 10 105 10 63 0 105 -4
105 -10 0 -5 7 -10 15 -10 8 0 15 5 15 10 0 6 35 10 85 10 50 0 85 -4 85 -10
0 -5 7 -10 15 -10 8 0 15 5 15 10 0 6 7 10 15 10 8 0 15 -4 15 -10 0 -15 30
-12 31 3 0 10 2 10 6 0 6 -15 33 -17 33 -3 0 6 48 10 125 10 77 0 125 -4 125
-10 0 -5 7 -10 15 -10 8 0 15 5 15 10 0 6 35 10 85 10 50 0 85 -4 85 -10 0 -5
7 -10 15 -10 8 0 15 5 15 10 0 6 7 10 15 10 8 0 15 -4 15 -10 0 -15 30 -12 31
3 0 9 2 9 6 0 6 -15 33 -17 33 -3 0 7 84 9 247 8 l246 -3 18 -32 19 -33 -298
0 c-1121 -1 -1507 1 -1518 11 -8 7 -14 6 -19 -1 -5 -8 -74 -11 -225 -9 -119 1
-223 -1 -229 -5 -14 -9 -41 11 -41 31 0 8 8 13 18 11 15 -3 17 5 14 64 -3 66
-3 68 48 142 33 50 49 83 47 98 -2 13 -2 17 0 11 5 -16 23 -17 23 -2 0 5 18
37 40 69 26 38 39 68 37 82 -2 13 -2 17 0 11 5 -16 23 -17 23 -2 0 5 18 37 41
70 22 33 38 67 35 74 -3 9 0 12 10 8 8 -3 14 1 14 9 0 8 9 23 20 33 11 10 20
22 20 27 0 5 18 36 40 68 22 32 40 64 40 69 0 6 5 11 10 11 6 0 10 5 10 11 0
5 18 37 40 69 22 32 40 62 40 65 0 3 23 39 50 80 28 41 50 77 50 80 0 3 23 39
50 80 28 41 50 77 50 81 0 3 9 18 19 33 17 23 21 49 24 167 6 179 17 241 64
341 23 50 84 113 109 113 7 0 14 6 17 13 2 6 8 9 12 5 8 -8 1 -27 -33 -83 -10
-16 -23 -55 -30 -85 -6 -30 -14 -68 -18 -85 -4 -16 -9 -104 -11 -194 -3 -143
-6 -168 -23 -192 -11 -15 -20 -32 -20 -38 0 -6 -3 -11 -8 -11 -4 0 -15 -17
-24 -37 -17 -38 -49 -94 -58 -103 -3 -3 -11 -15 -17 -27 -7 -13 -19 -33 -25
-45 -7 -13 -15 -25 -18 -28 -3 -3 -10 -14 -16 -25 -26 -48 -39 -70 -44 -75 -3
-3 -11 -15 -17 -27 -7 -13 -19 -33 -25 -45 -7 -13 -15 -25 -18 -28 -3 -3 -14
-23 -26 -45 -27 -52 -48 -89 -54 -95 -3 -3 -11 -15 -17 -27 -7 -13 -19 -33
-25 -45 -7 -13 -15 -25 -18 -28 -3 -3 -11 -16 -18 -29 -8 -13 -22 -39 -33 -57
-10 -19 -28 -49 -38 -68 -11 -18 -25 -44 -33 -57 -7 -13 -15 -26 -18 -29 -5
-5 -18 -27 -44 -75 -6 -11 -13 -22 -16 -25 -3 -3 -16 -26 -29 -52 -13 -27 -28
-48 -33 -48 -4 0 -8 -3 -8 -7 0 -5 453 -7 1007 -5 555 1 1003 6 997 10 -16 11
-74 99 -74 112 0 7 -7 10 -14 7 -10 -4 -13 -1 -10 8 3 8 -4 28 -15 44 -12 16
-21 34 -21 40 0 6 -4 11 -10 11 -5 0 -10 5 -10 10 0 6 -27 51 -60 100 -33 49
-60 92 -60 95 0 3 -22 39 -50 80 -27 41 -50 79 -50 85 0 5 -4 10 -8 10 -5 0
-15 12 -23 28 -7 15 -35 59 -61 99 -27 40 -48 75 -48 78 0 3 -22 39 -50 80
-27 41 -50 79 -50 85 0 5 -4 10 -8 10 -5 0 -15 12 -23 28 -7 15 -34 59 -60 97
-25 39 -48 78 -52 88 -4 9 -17 21 -29 26 -22 8 -23 13 -26 142 -1 73 -6 137
-12 143 -5 5 -10 20 -10 33 0 33 -39 114 -71 144 -15 15 -44 35 -65 45 -22 9
-54 28 -71 41 -28 21 -33 30 -33 67 0 33 6 49 26 70 23 23 35 26 90 26 36 0
72 -4 82 -9z m-218 -26 c0 -8 -4 -15 -10 -15 -5 0 -10 7 -10 15 0 8 5 15 10
15 6 0 10 -7 10 -15z m-243 -167 c-3 -8 -6 -5 -6 6 -1 11 2 17 5 13 3 -3 4
-12 1 -19z m173 -7 c0 -12 -20 -25 -27 -18 -7 7 6 27 18 27 5 0 9 -4 9 -9z
m-902 -14 c6 -4 13 -4 15 0 6 10 89 9 104 0 7 -4 14 -4 17 1 5 9 67 7 121 -3
17 -3 72 -8 123 -12 52 -3 117 -11 145 -17 58 -13 55 -4 44 -121 -3 -27 -5
-78 -6 -113 -1 -59 -3 -63 -33 -82 -18 -11 -45 -20 -61 -20 -15 0 -35 -4 -45
-9 -9 -5 -28 -13 -42 -18 -14 -6 -45 -20 -68 -32 -24 -11 -50 -21 -58 -21 -8
0 -14 -4 -14 -10 0 -5 -9 -10 -19 -10 -11 0 -21 -3 -23 -7 -3 -7 -55 -37 -115
-67 -13 -6 -23 -14 -23 -18 0 -5 -5 -8 -11 -8 -5 0 -37 -18 -69 -40 -32 -22
-64 -40 -69 -40 -6 0 -11 -4 -11 -8 0 -5 -12 -15 -27 -23 -16 -8 -37 -22 -47
-31 -11 -10 -26 -18 -33 -18 -7 0 -13 -4 -13 -8 0 -5 -12 -15 -27 -23 -16 -8
-37 -22 -47 -31 -11 -10 -26 -18 -33 -18 -7 0 -13 -4 -13 -8 0 -5 -12 -15 -27
-22 -16 -8 -41 -23 -56 -33 -34 -23 -71 -25 -89 -6 -7 8 -22 32 -34 54 -11 22
-25 49 -31 60 -39 72 -133 272 -133 283 0 6 -4 12 -10 12 -5 0 -10 9 -10 20 0
11 -4 20 -10 20 -5 0 -10 6 -10 14 0 7 -13 41 -30 75 -16 33 -43 89 -60 122
-16 34 -30 68 -30 75 0 8 -4 14 -10 14 -5 0 -10 9 -10 20 0 11 -4 20 -10 20
-13 0 -13 27 1 35 10 7 39 12 114 18 22 2 40 5 40 6 0 1 23 4 50 5 28 2 84 7
125 11 65 8 97 8 145 4 12 -2 279 13 282 15 6 4 132 -2 141 -7z m2502 -10 c41
-3 116 -8 165 -11 147 -10 295 -30 295 -42 0 -2 -4 -12 -9 -22 -5 -9 -13 -28
-19 -42 -5 -14 -20 -47 -32 -75 -12 -27 -26 -59 -30 -70 -4 -11 -17 -41 -29
-67 -11 -27 -31 -69 -42 -95 -12 -27 -34 -75 -50 -107 -16 -32 -29 -65 -29
-72 0 -8 -4 -14 -10 -14 -5 0 -10 -6 -10 -14 0 -17 -42 -100 -52 -104 -5 -2
-8 -12 -8 -23 0 -10 -4 -19 -10 -19 -5 0 -10 -5 -10 -10 0 -19 -52 -89 -70
-95 -19 -6 -120 42 -120 57 0 4 -6 8 -13 8 -7 0 -22 8 -33 18 -10 9 -31 23
-46 31 -16 8 -28 18 -28 23 0 4 -6 8 -14 8 -7 0 -19 7 -26 15 -7 9 -28 23 -46
31 -19 9 -34 20 -34 25 0 5 -5 9 -11 9 -5 0 -36 18 -68 39 -59 40 -106 68
-176 105 -22 12 -42 23 -45 26 -6 6 -134 68 -167 81 -48 19 -79 32 -95 40 -10
5 -28 9 -41 9 -12 0 -39 11 -59 25 -33 23 -36 28 -31 60 3 19 2 42 -2 52 -4
10 -9 45 -10 78 -1 34 -5 70 -9 82 -5 14 -2 23 10 27 24 9 151 29 201 31 24 1
46 4 49 7 7 7 661 3 764 -5z m-1385 -57 c14 -13 25 -29 25 -37 0 -7 5 -13 10
-13 6 0 10 -9 10 -19 0 -11 5 -23 10 -26 6 -3 10 -17 10 -31 0 -14 4 -33 9
-43 6 -10 11 -69 12 -132 l1 -114 -28 0 c-27 0 -29 3 -36 50 -3 28 -7 77 -7
109 -1 56 -12 109 -32 148 -5 10 -9 23 -9 29 0 15 -51 59 -67 59 -19 0 -83
-68 -83 -88 0 -10 -4 -22 -9 -27 -11 -13 -20 -75 -27 -193 l-6 -93 -31 3 -32
3 1 70 c3 169 37 291 95 343 61 54 128 55 184 2z m-50 -103 c8 -16 15 -42 15
-57 0 -14 4 -30 9 -35 15 -16 19 -184 5 -196 -7 -5 -45 -9 -86 -7 l-73 3 1 50
c3 82 16 185 25 191 5 3 9 13 9 23 0 26 46 72 64 65 9 -3 22 -20 31 -37z
m2267 -63 c3 -3 -1 -18 -9 -34 -8 -17 -12 -34 -8 -40 3 -5 0 -20 -6 -32 -7
-13 -12 -39 -10 -59 1 -21 -3 -40 -9 -44 -8 -5 -8 -10 0 -20 8 -9 8 -15 0 -20
-13 -8 -14 -232 0 -240 17 -11 11 -45 -8 -45 -9 0 -22 -10 -27 -22 -6 -13 -19
-27 -31 -33 -30 -15 -84 -68 -84 -83 0 -7 -10 -17 -22 -22 -13 -4 -70 -56
-127 -114 -104 -106 -141 -128 -98 -58 28 45 41 73 39 88 -1 6 25 64 58 129
33 65 60 126 60 136 0 9 7 22 15 29 18 15 85 150 85 171 0 9 9 24 20 34 11 10
20 26 20 35 0 24 26 73 50 95 11 10 17 21 15 26 -3 4 6 29 20 55 14 26 25 53
25 60 0 14 22 19 32 8z m-4512 -94 c0 -11 9 -35 20 -55 11 -20 20 -42 20 -50
0 -8 9 -30 20 -50 11 -20 20 -44 20 -55 0 -10 5 -22 10 -25 6 -3 10 -15 10
-25 0 -11 9 -35 20 -55 11 -20 20 -44 20 -55 0 -10 5 -22 10 -25 6 -3 10 -21
10 -40 0 -19 5 -37 10 -40 6 -3 10 -17 10 -30 0 -13 5 -27 10 -30 6 -3 10 -35
10 -71 0 -36 4 -64 10 -64 6 0 10 -7 10 -15 0 -21 -23 -19 -40 5 -8 11 -20 20
-28 20 -18 0 -82 66 -82 85 0 8 -9 20 -20 27 -23 14 -29 77 -7 79 10 0 10 2 0
6 -9 3 -13 30 -13 83 0 54 -4 80 -12 83 -10 3 -10 7 0 19 9 11 10 18 2 23 -5
3 -10 26 -10 50 0 24 -4 47 -10 50 -5 3 -10 21 -10 40 0 19 -4 37 -10 40 -11
7 -14 88 -4 98 11 10 24 -3 24 -23z m2775 -71 c5 -5 17 -9 26 -9 18 0 163 -73
189 -95 8 -7 25 -16 37 -19 13 -4 29 -13 35 -19 7 -7 38 -30 68 -51 92 -65
199 -167 255 -241 55 -73 95 -138 100 -165 2 -8 11 -33 20 -55 48 -112 -7
-351 -108 -469 l-34 -40 -19 30 c-10 16 -27 38 -37 49 -10 11 -25 35 -34 53
-8 17 -20 32 -25 32 -5 0 -6 5 -2 11 3 6 2 14 -3 18 -11 7 -113 157 -113 166
0 3 -5 11 -10 18 -19 22 -58 81 -109 163 -28 45 -58 87 -66 94 -8 7 -15 17
-15 22 0 5 -17 35 -39 66 -59 88 -156 236 -160 247 -2 5 -19 31 -37 56 -28 41
-32 53 -29 100 1 30 3 55 4 56 3 6 97 -11 106 -18z m-1075 -8 c0 -12 -20 -25
-27 -18 -7 7 6 27 18 27 5 0 9 -4 9 -9z m40 -26 c0 -8 -7 -15 -15 -15 -8 0
-15 7 -15 15 0 8 7 15 15 15 8 0 15 -7 15 -15z m-2639 -122 c1 -54 4 -114 6
-133 8 -70 8 -917 0 -982 -6 -48 -13 -68 -23 -68 -8 0 -14 5 -14 10 0 6 -6 10
-12 10 -7 0 -35 17 -63 38 -27 21 -71 52 -97 70 -47 32 -60 52 -35 52 7 0 19
-9 27 -20 8 -11 21 -20 28 -20 7 0 31 -19 53 -41 30 -31 43 -39 52 -30 8 8 8
11 -2 11 -18 0 -57 45 -83 95 -11 22 -25 43 -30 46 -21 13 -94 249 -77 249 5
0 9 5 9 10 0 6 -8 5 -20 -2 -12 -8 -20 -24 -20 -40 0 -16 -4 -28 -10 -28 -5 0
-10 3 -10 6 0 19 25 91 37 105 7 9 10 18 7 22 -3 3 4 32 16 64 12 32 31 83 41
113 10 30 23 63 29 72 5 10 10 25 10 33 0 8 4 15 9 15 4 0 11 15 14 34 3 18
16 55 28 82 13 27 23 54 24 59 1 6 4 17 7 25 4 8 14 37 23 63 8 27 22 61 30
77 8 16 15 42 15 58 0 29 7 42 22 42 4 0 9 -44 9 -97z m2226 -58 c-23 -22 -33
-18 -12 5 10 11 20 18 23 16 2 -3 -3 -12 -11 -21z m771 -517 l2 -538 -54 0
c-41 0 -55 4 -60 17 -4 9 -7 245 -7 526 0 379 3 513 12 524 8 9 27 13 58 11
l46 -3 3 -537z m298 529 c0 -1 10 -16 22 -34 22 -31 22 -34 22 -532 l0 -501
-55 0 -55 0 0 533 c0 294 3 537 7 541 6 6 56 -1 59 -7z m-746 -32 c0 -8 -4
-15 -10 -15 -5 0 -10 7 -10 15 0 8 5 15 10 15 6 0 10 -7 10 -15z m-370 -13
c-27 -9 -38 -28 -33 -55 3 -15 9 -27 14 -27 5 0 9 -9 9 -20 0 -11 5 -20 10
-20 6 0 10 -9 10 -20 0 -11 5 -20 10 -20 6 0 10 -9 10 -20 0 -11 5 -20 10 -20
6 0 10 -13 10 -30 0 -16 5 -30 10 -30 6 0 10 -18 10 -40 0 -22 5 -40 10 -40 6
0 10 -7 10 -16 0 -10 6 -14 15 -11 24 10 28 -11 5 -30 -11 -10 -20 -25 -20
-33 0 -9 -11 -26 -25 -38 -13 -12 -28 -34 -31 -49 -4 -15 -15 -35 -26 -44 -10
-9 -18 -22 -18 -29 0 -6 -13 -25 -30 -40 -16 -15 -30 -34 -30 -42 0 -7 -9 -20
-20 -28 -11 -8 -20 -21 -20 -30 0 -9 -22 -38 -50 -65 -27 -27 -50 -55 -50 -62
0 -7 -10 -13 -22 -13 -24 0 -68 36 -68 56 0 6 -7 15 -15 18 -9 3 -15 11 -14
18 3 19 -11 50 -33 74 -12 13 -15 24 -10 28 7 4 5 17 -5 36 -8 17 -12 37 -9
45 3 8 1 17 -4 20 -13 8 -13 112 0 120 6 3 10 21 10 39 0 19 7 39 15 46 10 9
15 9 15 1 0 -6 7 -11 15 -11 20 0 19 10 -2 26 -17 13 -17 15 0 28 9 7 17 20
17 27 0 8 9 21 20 29 11 8 20 20 20 27 0 16 185 203 200 203 6 0 25 13 43 29
17 17 35 27 41 24 6 -4 4 -9 -4 -11z m350 -42 c0 -5 -4 -10 -10 -10 -5 0 -10
5 -10 10 0 6 5 10 10 10 6 0 10 -4 10 -10z m-80 -105 c0 -8 -4 -15 -10 -15 -5
0 -10 7 -10 15 0 8 5 15 10 15 6 0 10 -7 10 -15z m977 -47 c-3 -8 -6 -5 -6 6
-1 11 2 17 5 13 3 -3 4 -12 1 -19z m-667 -18 c0 -5 -4 -10 -10 -10 -5 0 -10 5
-10 10 0 6 5 10 10 10 6 0 10 -4 10 -10z m-350 -10 c0 -5 -4 -10 -10 -10 -5 0
-10 5 -10 10 0 6 5 10 10 10 6 0 10 -4 10 -10z m1044 -11 c-3 -5 -10 -7 -15
-3 -5 3 -7 10 -3 15 3 5 10 7 15 3 5 -3 7 -10 3 -15z m-19 -28 c3 -5 1 -12 -5
-16 -5 -3 -10 1 -10 9 0 18 6 21 15 7z m-2555 -41 c0 -5 7 -10 15 -10 16 0
299 -280 405 -400 36 -40 127 -136 203 -211 87 -88 137 -146 137 -159 0 -11
-4 -20 -10 -20 -13 0 -13 -67 0 -75 11 -7 4 -25 -9 -25 -10 0 -91 79 -91 89 0
4 -11 14 -25 21 -14 7 -25 17 -25 21 0 11 -57 69 -68 69 -6 0 -13 8 -16 18 -3
9 -60 71 -126 136 -66 66 -120 126 -120 133 0 7 -7 13 -15 13 -9 0 -19 8 -22
17 -4 9 -28 40 -55 68 -26 27 -48 53 -48 57 0 5 -22 31 -50 59 -27 28 -50 56
-50 63 0 6 -9 18 -20 26 -11 8 -20 20 -20 28 0 7 -9 22 -20 34 -29 31 -26 58
5 58 14 0 25 -4 25 -10z m1480 6 c0 -2 -7 -9 -15 -16 -12 -10 -15 -10 -15 4 0
9 7 16 15 16 8 0 15 -2 15 -4z m3000 -19 c0 -12 -9 -29 -20 -37 -11 -8 -20
-21 -20 -28 0 -8 -13 -27 -30 -42 -16 -15 -30 -33 -30 -40 0 -6 -18 -29 -40
-50 -22 -21 -40 -43 -40 -48 0 -6 -45 -55 -100 -111 -55 -55 -100 -102 -100
-106 0 -7 -84 -97 -220 -235 -58 -59 -114 -120 -126 -135 -26 -37 -60 -29 -50
11 4 14 3 31 -3 37 -22 28 -16 54 24 93 22 22 141 145 265 274 345 360 429
440 462 440 22 0 28 -5 28 -23z m-3035 -16 c3 -5 1 -12 -5 -16 -5 -3 -10 1
-10 9 0 18 6 21 15 7z m315 -374 c0 -215 -3 -296 -12 -305 -7 -7 -36 -12 -65
-12 l-53 0 0 226 0 225 28 42 c16 23 36 59 46 80 11 24 24 37 36 37 19 0 20
-9 20 -293z m1040 171 c0 -5 13 -28 28 -51 52 -79 53 -81 50 -262 l-3 -170
-60 0 -60 0 -3 250 c-1 137 0 256 3 264 4 11 9 10 25 -4 11 -10 20 -22 20 -27z
m-4020 -218 c0 -5 -4 -10 -10 -10 -5 0 -10 5 -10 10 0 6 5 10 10 10 6 0 10 -4
10 -10z m2784 -29 c-1 -16 -5 -35 -10 -42 -15 -24 -11 -79 6 -79 9 0 11 -3 4
-8 -18 -12 -24 -52 -8 -52 8 0 14 -6 14 -13 0 -27 -25 -37 -97 -37 -69 0 -73
1 -73 23 0 12 9 29 20 37 11 8 20 22 20 32 0 10 5 18 10 18 6 0 10 8 10 18 0
10 9 24 20 32 11 8 20 23 20 33 0 10 4 16 10 12 5 -3 7 -12 3 -20 -3 -8 0 -15
6 -15 7 0 11 15 9 41 -1 26 3 43 12 49 20 13 27 5 24 -29z m-2769 -70 c-6 -6
-55 44 -55 55 0 4 13 -5 30 -21 16 -16 27 -31 25 -34z m2452 27 c-3 -8 -6 -5
-6 6 -1 11 2 17 5 13 3 -3 4 -12 1 -19z m1728 -9 c4 -11 4 -23 0 -27 -7 -7
-25 17 -25 36 0 20 18 14 25 -9z m-4128 -54 c8 -9 13 -19 10 -22 -6 -5 -37 21
-37 31 0 10 11 6 27 -9z m1485 -32 c26 -26 48 -52 48 -58 0 -6 18 -29 40 -50
22 -21 40 -44 40 -50 0 -6 14 -24 30 -40 17 -16 30 -34 30 -40 0 -6 14 -24 30
-40 17 -16 30 -34 30 -40 0 -6 14 -24 30 -40 17 -16 30 -34 30 -40 0 -6 14
-24 30 -40 17 -16 30 -34 30 -40 0 -6 14 -24 30 -40 17 -16 30 -35 30 -42 0
-7 7 -13 15 -13 9 0 19 -8 22 -17 4 -10 42 -56 85 -102 43 -46 78 -88 78 -92
0 -5 6 -9 14 -9 7 0 40 -28 73 -62 79 -83 161 -158 172 -158 5 0 22 -13 38
-30 15 -16 33 -30 39 -30 5 0 23 -13 39 -30 16 -16 34 -30 40 -30 7 0 20 -9
30 -20 10 -11 24 -20 30 -20 7 0 18 -6 24 -14 7 -8 31 -24 54 -36 23 -12 46
-28 50 -36 4 -8 21 -14 36 -14 16 0 34 -7 41 -15 14 -17 108 -65 129 -65 17 0
75 -18 109 -33 21 -10 31 -37 13 -37 -29 0 -206 41 -215 50 -5 5 -18 10 -28
10 -10 0 -26 4 -36 9 -9 5 -35 17 -57 26 -22 9 -47 20 -55 25 -8 5 -43 23 -76
40 -34 16 -67 37 -74 45 -7 8 -18 15 -25 15 -8 0 -15 4 -17 8 -1 5 -32 28 -68
52 -60 40 -124 89 -194 150 -74 65 -356 350 -356 361 0 6 -19 33 -42 58 -71
77 -98 110 -98 119 0 4 -18 26 -40 47 -22 21 -40 45 -40 52 0 7 -7 13 -15 13
-9 0 -18 8 -22 18 -8 24 -105 122 -120 122 -7 0 -13 -6 -13 -13 0 -8 -9 -22
-20 -32 -11 -10 -20 -24 -20 -31 0 -7 -6 -17 -13 -21 -7 -4 -21 -24 -31 -43
-9 -19 -24 -46 -32 -60 -7 -14 -14 -35 -14 -47 0 -13 -4 -23 -10 -23 -5 0 -10
-7 -10 -15 0 -8 5 -15 10 -15 6 0 10 -11 10 -25 0 -15 -6 -25 -14 -25 -8 0
-17 -5 -19 -10 -3 -6 -4 -5 -3 2 3 14 -59 59 -77 55 -7 -1 -13 10 -15 26 -2
15 -8 27 -13 27 -5 0 -9 9 -9 20 0 11 -5 20 -11 20 -6 0 -9 16 -7 37 2 30 9
41 30 51 53 25 158 173 158 223 0 10 5 21 10 24 6 3 10 19 10 34 0 43 28 91
53 91 12 0 42 -21 69 -47z m2625 -20 c-3 -10 -5 -4 -5 12 0 17 2 24 5 18 2 -7
2 -21 0 -30z m68 28 c3 -5 1 -12 -5 -16 -5 -3 -10 1 -10 9 0 18 6 21 15 7z
m64 -93 c0 -10 -2 -10 -6 0 -6 14 -33 16 -33 2 0 -6 -25 -9 -56 -9 -44 1 -54
5 -50 16 3 8 6 19 6 25 0 6 11 3 25 -6 22 -14 25 -15 25 -1 0 8 7 15 15 15 8
0 15 8 15 18 0 13 7 10 30 -15 17 -18 30 -38 29 -45z m-1942 20 c-3 -8 -6 -5
-6 6 -1 11 2 17 5 13 3 -3 4 -12 1 -19z m719 -8 c13 0 24 5 24 10 0 16 27 12
34 -6 4 -12 1 -14 -13 -9 -11 3 -22 2 -24 -2 -6 -10 -63 -9 -59 0 1 4 3 15 3
25 1 16 2 16 6 0 3 -11 14 -18 29 -18z m374 11 c0 -9 -23 -21 -40 -21 -4 0
-10 7 -14 15 -4 11 2 15 24 15 17 0 30 -4 30 -9z m444 -5 c-9 -24 -34 -28 -34
-6 0 13 7 20 20 20 13 0 17 -5 14 -14z m-1574 -51 c0 -8 -7 -15 -16 -15 -14 0
-14 3 -4 15 7 8 14 15 16 15 2 0 4 -7 4 -15z m-145 -9 c29 -15 75 -76 75 -100
0 -21 -38 -87 -59 -103 -9 -7 -39 -13 -67 -13 -42 0 -56 5 -78 26 -14 15 -26
34 -26 43 0 10 -5 22 -11 28 -8 8 -8 19 2 42 8 17 17 31 21 31 5 0 8 7 8 14 0
18 46 44 81 45 15 1 39 -5 54 -13z m2631 -11 c18 -14 41 -41 50 -60 15 -33 15
-37 0 -70 -28 -58 -53 -75 -111 -75 -58 0 -83 17 -111 75 -21 45 -7 82 45 125
44 37 83 38 127 5z m-2722 -296 c-3 -5 -10 -7 -15 -3 -5 3 -7 10 -3 15 3 5 10
7 15 3 5 -3 7 -10 3 -15z m40 0 c-3 -5 -10 -7 -15 -3 -5 3 -7 10 -3 15 3 5 10
7 15 3 5 -3 7 -10 3 -15z m40 0 c-3 -5 -10 -7 -15 -3 -5 3 -7 10 -3 15 3 5 10
7 15 3 5 -3 7 -10 3 -15z m40 0 c-3 -5 -10 -7 -15 -3 -5 3 -7 10 -3 15 3 5 10
7 15 3 5 -3 7 -10 3 -15z m56 6 c0 -8 -7 -15 -15 -15 -8 0 -15 7 -15 15 0 8 7
15 15 15 8 0 15 -7 15 -15z m60 0 c0 -8 -7 -15 -15 -15 -8 0 -15 7 -15 15 0 8
7 15 15 15 8 0 15 -7 15 -15z m44 -6 c-3 -5 -10 -7 -15 -3 -5 3 -7 10 -3 15 3
5 10 7 15 3 5 -3 7 -10 3 -15z m40 0 c-3 -5 -10 -7 -15 -3 -5 3 -7 10 -3 15 3
5 10 7 15 3 5 -3 7 -10 3 -15z m36 5 c0 -8 -5 -12 -10 -9 -6 4 -8 11 -5 16 9
14 15 11 15 -7z m44 -5 c-3 -5 -10 -7 -15 -3 -5 3 -7 10 -3 15 3 5 10 7 15 3
5 -3 7 -10 3 -15z m36 5 c0 -8 -5 -12 -10 -9 -6 4 -8 11 -5 16 9 14 15 11 15
-7z m45 7 c3 -5 1 -12 -5 -16 -5 -3 -10 1 -10 9 0 18 6 21 15 7z m59 -12 c-3
-5 -10 -7 -15 -3 -5 3 -7 10 -3 15 3 5 10 7 15 3 5 -3 7 -10 3 -15z m1960 0
c-3 -5 -10 -7 -15 -3 -5 3 -7 10 -3 15 3 5 10 7 15 3 5 -3 7 -10 3 -15z m96 5
c0 -8 -5 -12 -10 -9 -6 4 -8 11 -5 16 9 14 15 11 15 -7z m44 -5 c-3 -5 -10 -7
-15 -3 -5 3 -7 10 -3 15 3 5 10 7 15 3 5 -3 7 -10 3 -15z m40 0 c-3 -5 -10 -7
-15 -3 -5 3 -7 10 -3 15 3 5 10 7 15 3 5 -3 7 -10 3 -15z m40 0 c-3 -5 -10 -7
-15 -3 -5 3 -7 10 -3 15 3 5 10 7 15 3 5 -3 7 -10 3 -15z m40 0 c-3 -5 -10 -7
-15 -3 -5 3 -7 10 -3 15 3 5 10 7 15 3 5 -3 7 -10 3 -15z m-2154 7 c0 -11 -19
-15 -25 -6 -3 5 1 10 9 10 9 0 16 -2 16 -4z m1047 -2 c-3 -3 -12 -4 -19 -1 -8
3 -5 6 6 6 11 1 17 -2 13 -5z m100 0 c-3 -3 -12 -4 -19 -1 -8 3 -5 6 6 6 11 1
17 -2 13 -5z m-957 -69 c14 -8 32 -17 40 -21 8 -4 38 -27 67 -51 28 -23 55
-43 60 -43 4 0 26 -18 48 -40 22 -21 45 -39 51 -40 5 0 23 -13 39 -30 16 -16
34 -30 40 -30 6 0 33 -22 60 -50 27 -27 54 -50 60 -50 6 0 24 -13 40 -30 33
-35 64 -38 90 -10 10 11 23 20 30 20 6 0 29 18 50 40 21 22 44 40 50 40 6 0
29 18 50 40 21 22 44 40 50 40 6 0 29 18 50 40 21 22 43 40 49 40 5 0 24 11
42 25 18 14 36 25 40 25 5 0 30 21 56 47 l49 48 199 0 c135 0 200 -3 200 -11
0 -6 -15 -24 -32 -40 -72 -66 -188 -248 -188 -293 0 -10 -9 -26 -20 -36 -11
-10 -20 -24 -20 -30 0 -7 -7 -18 -15 -25 -8 -7 -26 -36 -41 -66 -14 -30 -30
-54 -35 -54 -5 0 -9 -5 -9 -12 0 -16 -110 -128 -126 -128 -6 0 -19 -9 -29 -20
-10 -11 -26 -20 -36 -20 -10 0 -34 -9 -54 -20 -20 -11 -47 -20 -60 -20 -13 0
-40 -9 -60 -20 -31 -18 -54 -20 -190 -20 -136 0 -159 2 -190 20 -20 11 -42 20
-50 20 -8 0 -15 5 -15 10 0 6 -11 10 -24 10 -14 0 -28 5 -31 10 -3 6 -15 10
-26 10 -10 0 -19 5 -19 10 0 6 -6 10 -14 10 -7 0 -20 7 -27 16 -7 9 -23 20
-36 25 -13 5 -23 15 -23 24 0 8 -7 15 -15 15 -9 0 -20 11 -25 25 -5 14 -17 28
-25 31 -8 4 -15 14 -15 23 0 9 -9 23 -20 31 -11 8 -20 22 -20 32 0 10 -4 18
-10 18 -5 0 -10 7 -10 15 0 9 -9 25 -20 37 -11 12 -20 32 -20 45 0 13 -4 23
-8 23 -5 0 -20 21 -33 48 -13 26 -27 49 -31 50 -5 2 -8 10 -8 18 0 8 -13 29
-30 47 -16 18 -30 37 -30 43 0 7 -25 37 -55 68 -30 30 -55 60 -55 65 0 6 44
12 103 14 56 1 116 4 132 5 17 1 41 -5 55 -13z m2170 1 c0 -7 -7 -27 -15 -42
-8 -16 -15 -39 -15 -51 0 -12 -4 -25 -10 -28 -5 -3 -10 -14 -10 -24 0 -22 -47
-116 -65 -131 -8 -7 -15 -22 -15 -34 0 -13 -21 -42 -50 -71 -27 -27 -50 -54
-50 -59 0 -14 -61 -76 -75 -76 -6 0 -22 -12 -36 -26 -13 -14 -34 -30 -46 -35
-13 -5 -23 -15 -23 -23 0 -7 -8 -17 -17 -20 -24 -9 -62 -31 -76 -45 -6 -6 -18
-11 -26 -11 -10 0 -4 11 17 33 18 18 32 37 32 43 0 5 27 36 60 69 34 34 60 68
60 80 0 11 10 25 22 30 13 6 28 20 34 33 6 13 23 36 38 51 14 15 26 32 26 37
0 5 18 28 40 49 22 21 40 44 40 50 0 7 9 20 20 30 11 10 20 23 20 30 0 6 14
24 30 40 17 16 30 34 30 41 0 6 7 17 15 24 8 7 15 21 15 31 0 11 7 19 15 19 8
0 15 -6 15 -14z m-1942 -41 c31 -25 68 -56 82 -68 14 -12 38 -28 53 -36 15 -8
27 -18 27 -22 0 -5 19 -21 43 -38 23 -16 58 -43 77 -60 34 -30 65 -40 72 -23
2 4 23 23 48 42 24 19 58 47 75 62 16 16 34 28 39 28 5 0 16 8 25 18 9 10 32
29 51 42 19 13 41 30 48 37 55 53 122 79 145 57 8 -9 -11 -44 -24 -44 -10 0
-82 -53 -109 -80 -8 -9 -31 -27 -50 -40 -19 -13 -48 -37 -65 -52 -16 -15 -33
-28 -37 -28 -5 0 -27 -18 -50 -40 -24 -22 -46 -40 -51 -40 -4 0 -19 -11 -33
-25 -32 -33 -43 -32 -84 8 -19 17 -51 43 -70 57 -19 13 -42 32 -51 42 -9 10
-20 18 -25 18 -5 0 -28 18 -52 40 -23 22 -46 40 -50 40 -5 0 -17 10 -28 21
-10 12 -39 35 -64 52 -82 56 -91 77 -34 77 27 0 49 -11 92 -45z m-1821 3 c-3
-8 -6 -5 -6 6 -1 11 2 17 5 13 3 -3 4 -12 1 -19z m4051 -72 c-10 -7 -18 -25
-18 -38 0 -14 -7 -31 -15 -38 -9 -7 -13 -20 -10 -28 3 -9 0 -12 -9 -9 -17 7
-76 -44 -76 -64 0 -10 -3 -10 -12 -1 -8 8 -3 18 20 41 18 16 32 34 32 40 0 7
9 21 20 33 11 12 20 28 20 35 0 7 4 13 8 13 5 0 14 12 21 27 9 20 15 23 24 14
9 -10 8 -15 -5 -25z m-3931 -182 c-3 -3 -12 -4 -19 -1 -8 3 -5 6 6 6 11 1 17
-2 13 -5z m3603 -244 c0 -5 -4 -10 -10 -10 -5 0 -10 5 -10 10 0 6 5 10 10 10
6 0 10 -4 10 -10z m-80 -75 c0 -8 -7 -15 -15 -15 -16 0 -20 12 -8 23 11 12 23
8 23 -8z m-140 -125 c0 -5 -7 -10 -15 -10 -8 0 -15 5 -15 10 0 6 7 10 15 10 8
0 15 -4 15 -10z m-2275 -81 c28 -17 171 -88 205 -103 8 -3 29 -15 45 -25 17
-11 42 -20 57 -20 15 -1 43 -10 63 -21 20 -11 49 -20 65 -20 16 0 32 -4 35
-10 3 -5 17 -10 30 -10 13 0 27 -4 30 -10 3 -5 21 -10 40 -10 19 0 37 -4 40
-10 3 -5 26 -10 50 -10 24 0 47 -4 50 -10 3 -5 35 -10 70 -10 35 0 67 -4 70
-10 3 -6 48 -10 100 -10 52 0 96 -4 99 -9 8 -12 126 -13 126 -1 0 6 42 10 100
10 60 0 100 4 100 10 0 6 30 10 70 10 40 0 70 4 70 10 0 6 18 10 40 10 22 0
40 5 40 10 0 6 18 10 40 10 22 0 40 5 40 10 0 6 11 10 24 10 14 0 28 -4 31
-10 3 -6 -5 -10 -19 -10 -14 0 -28 -4 -31 -10 -3 -5 -16 -10 -27 -10 -12 0
-44 -11 -72 -24 -64 -31 -147 -58 -154 -51 -3 2 -11 0 -18 -6 -8 -6 -20 -9
-29 -6 -8 4 -21 0 -28 -8 -8 -8 -23 -14 -33 -14 -47 1 -84 -5 -84 -12 0 -11
-43 -18 -135 -24 -44 -2 -96 -9 -115 -15 -45 -13 -265 -13 -310 0 -19 6 -56
12 -81 14 -25 2 -56 9 -69 16 -12 7 -20 8 -16 2 3 -5 -1 -13 -9 -16 -9 -3 -18
1 -22 10 -3 8 -12 13 -19 10 -7 -3 -16 -1 -19 4 -4 6 -15 10 -26 10 -10 0 -19
5 -19 10 0 6 -8 10 -18 10 -10 0 -24 9 -32 20 -8 11 -21 20 -30 20 -9 0 -22 9
-30 20 -8 11 -20 20 -27 20 -7 0 -30 16 -50 36 -21 20 -48 40 -61 45 -12 5
-27 20 -32 34 -5 14 -15 25 -21 25 -12 0 -136 112 -152 137 -9 15 13 8 58 -18z
m2015 -79 c0 -5 -5 -10 -11 -10 -5 0 -7 5 -4 10 3 6 8 10 11 10 2 0 4 -4 4
-10z m-110 -60 c12 -8 11 -10 -7 -10 -13 0 -23 5 -23 10 0 13 11 13 30 0z
m-45 -20 c3 -5 -1 -10 -9 -10 -9 0 -16 5 -16 10 0 6 4 10 9 10 6 0 13 -4 16
-10z m-45 -20 c12 -8 9 -10 -12 -10 -16 0 -28 5 -28 10 0 13 20 13 40 0z m-45
-20 c3 -5 -3 -10 -14 -10 -12 0 -21 5 -21 10 0 6 6 10 14 10 8 0 18 -4 21 -10z
m-1225 -204 c0 -11 -19 -15 -25 -6 -3 5 1 10 9 10 9 0 16 -2 16 -4z m404 -157
c-3 -5 -10 -7 -15 -3 -5 3 -7 10 -3 15 3 5 10 7 15 3 5 -3 7 -10 3 -15z"/>
<path d="M6268 5623 c7 -3 16 -2 19 1 4 3 -2 6 -13 5 -11 0 -14 -3 -6 -6z"/>
<path d="M5981 4934 c0 -11 3 -14 6 -6 3 7 2 16 -1 19 -3 4 -6 -2 -5 -13z"/>
<path d="M5450 3475 c0 -8 7 -15 15 -15 8 0 15 7 15 15 0 8 -7 15 -15 15 -8 0
-15 -7 -15 -15z"/>
<path d="M5455 3420 c3 -5 8 -10 11 -10 2 0 4 5 4 10 0 6 -5 10 -11 10 -5 0
-7 -4 -4 -10z"/>
<path d="M5420 3404 c0 -8 5 -12 10 -9 6 4 8 11 5 16 -9 14 -15 11 -15 -7z"/>
<path d="M5397 3354 c-9 -10 2 -24 19 -24 8 0 14 7 14 15 0 15 -21 21 -33 9z"/>
<path d="M5395 3311 c-3 -5 -1 -12 5 -16 5 -3 10 1 10 9 0 18 -6 21 -15 7z"/>
<path d="M5360 3265 c0 -8 5 -15 10 -15 6 0 10 7 10 15 0 8 -4 15 -10 15 -5 0
-10 -7 -10 -15z"/>
<path d="M5332 3198 c2 -13 8 -23 13 -23 6 0 11 10 13 23 2 15 -2 22 -13 22
-11 0 -15 -7 -13 -22z"/>
<path d="M7100 5533 c1 -125 5 -173 20 -228 11 -38 20 -73 20 -77 0 -5 5 -8
10 -8 11 0 14 33 3 44 -21 20 -32 115 -33 264 0 101 -4 162 -10 162 -6 0 -10
-59 -10 -157z"/>
<path d="M7160 5196 c0 -9 5 -16 10 -16 6 0 10 4 10 9 0 6 -4 13 -10 16 -5 3
-10 -1 -10 -9z"/>
<path d="M9205 5650 c3 -5 12 -7 20 -3 21 7 19 13 -6 13 -11 0 -18 -4 -14 -10z"/>
<path d="M8238 5213 c7 -3 16 -2 19 1 4 3 -2 6 -13 5 -11 0 -14 -3 -6 -6z"/>
<path d="M9250 5475 c0 -10 7 -15 18 -13 21 4 19 22 -2 26 -10 2 -16 -3 -16
-13z"/>
<path d="M11232 5415 c0 -16 2 -22 5 -12 2 9 2 23 0 30 -3 6 -5 -1 -5 -18z"/>
<path d="M9948 5364 c-4 -6 1 -19 12 -29 12 -10 20 -13 20 -7 0 7 -4 12 -9 12
-5 0 -11 8 -13 18 -2 11 -6 13 -10 6z"/>
<path d="M9985 5301 c-3 -5 -1 -12 5 -16 5 -3 10 1 10 9 0 18 -6 21 -15 7z"/>
<path d="M10005 5261 c-3 -5 -1 -12 5 -16 5 -3 10 1 10 9 0 18 -6 21 -15 7z"/>
<path d="M10033 5195 c0 -22 2 -30 4 -17 2 12 2 30 0 40 -3 9 -5 -1 -4 -23z"/>
<path d="M9270 5271 c0 -6 5 -13 10 -16 6 -3 10 1 10 9 0 9 -4 16 -10 16 -5 0
-10 -4 -10 -9z"/>
<path d="M7340 4966 c0 -9 8 -20 18 -23 9 -4 24 -15 33 -25 17 -18 45 -26 34
-9 -3 5 -23 24 -45 41 -30 24 -40 28 -40 16z"/>
<path d="M7455 4877 c30 -20 55 -28 55 -16 0 5 -12 14 -26 19 -36 14 -52 12
-29 -3z"/>
<path d="M7535 4838 c29 -21 85 -42 92 -34 3 3 0 6 -7 6 -7 0 -21 6 -29 14 -9
8 -29 18 -46 21 -28 7 -29 6 -10 -7z"/>
<path d="M7640 4790 c0 -5 12 -10 26 -10 14 0 23 4 19 10 -3 6 -15 10 -26 10
-10 0 -19 -4 -19 -10z"/>
<path d="M7726 4771 c-6 -9 25 -16 109 -27 22 -3 49 -9 60 -14 34 -14 84 -20
90 -10 4 6 -12 10 -39 10 -25 0 -48 5 -51 10 -3 6 -23 10 -44 10 -21 0 -52 7
-67 15 -33 17 -50 19 -58 6z"/>
<path d="M8015 4710 c-15 -7 -9 -9 25 -9 33 -1 41 2 30 9 -18 12 -28 12 -55 0z"/>
<path d="M11147 5080 c-9 -11 -17 -23 -17 -25 0 -7 -88 -95 -95 -95 -3 0 -20
-13 -38 -30 -18 -16 -37 -30 -43 -30 -6 0 -19 -9 -29 -20 -10 -11 -26 -20 -36
-20 -10 0 -21 -4 -24 -10 -3 -5 -15 -10 -26 -10 -10 0 -19 -4 -19 -10 0 -5
-11 -10 -24 -10 -14 0 -28 -4 -31 -10 -3 -5 -17 -10 -31 -10 -13 0 -24 -4 -24
-10 0 -5 -17 -10 -39 -10 -21 0 -44 -6 -50 -14 -10 -11 -4 -13 36 -9 27 3 52
9 57 14 6 5 18 9 28 9 10 0 26 4 36 9 16 8 31 15 100 43 17 7 32 16 32 20 0 5
5 8 11 8 36 0 259 198 259 230 0 16 -14 12 -33 -10z"/>
<path d="M10958 4943 c7 -3 16 -2 19 1 4 3 -2 6 -13 5 -11 0 -14 -3 -6 -6z"/>
<path d="M10515 4754 c-42 -8 -158 -14 -292 -15 -128 0 -223 -5 -223 -10 0
-13 467 -12 475 1 3 6 30 10 60 10 30 0 56 4 60 9 10 17 -9 18 -80 5z"/>
<path d="M9933 4743 c9 -2 23 -2 30 0 6 3 -1 5 -18 5 -16 0 -22 -2 -12 -5z"/>
<path d="M11561 4774 c0 -11 3 -14 6 -6 3 7 2 16 -1 19 -3 4 -6 -2 -5 -13z"/>
<path d="M11531 4722 c-7 -13 -10 -28 -7 -35 2 -7 5 -5 5 5 1 9 6 18 13 20 6
2 9 11 6 18 -3 11 -8 9 -17 -8z"/>
<path d="M11501 4644 c0 -11 3 -14 6 -6 3 7 2 16 -1 19 -3 4 -6 -2 -5 -13z"/>
<path d="M11461 4564 c0 -11 3 -14 6 -6 3 7 2 16 -1 19 -3 4 -6 -2 -5 -13z"/>
<path d="M11397 4453 c-4 -3 -7 -11 -7 -17 0 -6 5 -5 12 2 6 6 9 14 7 17 -3 3
-9 2 -12 -2z"/>
<path d="M11355 4370 c-3 -5 -1 -10 4 -10 6 0 11 5 11 10 0 6 -2 10 -4 10 -3
0 -8 -4 -11 -10z"/>
<path d="M11292 4240 c-18 -29 -15 -38 4 -12 9 13 14 25 12 27 -2 2 -9 -5 -16
-15z"/>
<path d="M11255 4170 c-3 -5 -1 -10 4 -10 6 0 11 5 11 10 0 6 -2 10 -4 10 -3
0 -8 -4 -11 -10z"/>
<path d="M11235 4130 c-3 -5 -1 -10 4 -10 6 0 11 5 11 10 0 6 -2 10 -4 10 -3
0 -8 -4 -11 -10z"/>
<path d="M11215 4090 c-3 -5 -1 -10 4 -10 6 0 11 5 11 10 0 6 -2 10 -4 10 -3
0 -8 -4 -11 -10z"/>
<path d="M11195 4050 c-3 -5 -1 -10 4 -10 6 0 11 5 11 10 0 6 -2 10 -4 10 -3
0 -8 -4 -11 -10z"/>
<path d="M11015 3700 c3 -5 8 -10 11 -10 2 0 4 5 4 10 0 6 -5 10 -11 10 -5 0
-7 -4 -4 -10z"/>
<path d="M10970 3631 c0 -5 5 -13 10 -16 6 -3 10 -2 10 4 0 5 -4 13 -10 16 -5
3 -10 2 -10 -4z"/>
<path d="M7240 4689 c0 -21 81 -128 102 -135 33 -10 218 -13 224 -3 3 5 -40 9
-96 9 l-101 0 -34 35 c-19 19 -35 39 -35 45 0 11 -45 60 -55 60 -3 0 -5 -5 -5
-11z"/>
<path d="M8590 4650 c0 -5 7 -10 16 -10 8 0 12 5 9 10 -3 6 -10 10 -16 10 -5
0 -9 -4 -9 -10z"/>
<path d="M7490 4640 c0 -5 5 -10 11 -10 5 0 7 5 4 10 -3 6 -8 10 -11 10 -2 0
-4 -4 -4 -10z"/>
<path d="M7570 4621 c0 -5 7 -12 16 -15 14 -5 15 -4 4 9 -14 17 -20 19 -20 6z"/>
<path d="M8505 4614 c-32 -16 -65 -18 -65 -4 0 6 -7 10 -15 10 -8 0 -15 -4
-15 -10 0 -5 -35 -10 -77 -12 -43 -2 -73 -5 -68 -8 6 -3 78 -3 161 0 145 5
151 6 129 22 -20 15 -25 15 -50 2z"/>
<path d="M8613 4583 c15 -2 37 -2 50 0 12 2 0 4 -28 4 -27 0 -38 -2 -22 -4z"/>
<path d="M8962 4690 c0 -19 2 -27 5 -17 2 9 2 25 0 35 -3 9 -5 1 -5 -18z"/>
<path d="M6912 4553 c38 -84 52 -106 56 -88 2 10 -1 21 -7 23 -6 2 -11 12 -11
23 0 10 -4 19 -10 19 -5 0 -10 7 -10 15 0 8 -5 15 -11 15 -6 0 -9 -3 -7 -7z"/>
<path d="M6970 4427 c0 -18 24 -67 33 -67 4 0 7 -9 7 -20 0 -11 5 -20 10 -20
6 0 10 -9 10 -20 0 -11 5 -20 10 -20 6 0 10 -9 10 -20 0 -11 5 -20 10 -20 6 0
10 -9 10 -20 0 -11 5 -20 10 -20 6 0 10 -10 10 -22 1 -26 26 -65 36 -55 4 4
-20 62 -54 129 -33 68 -66 138 -74 156 -13 32 -28 43 -28 19z"/>
<path d="M7130 4095 c0 -8 5 -15 10 -15 6 0 10 7 10 15 0 8 -4 15 -10 15 -5 0
-10 -7 -10 -15z"/>
<path d="M7150 4056 c0 -8 14 -40 30 -71 17 -31 30 -63 30 -71 0 -8 5 -14 10
-14 6 0 10 -10 10 -23 0 -13 9 -33 20 -45 11 -12 20 -28 20 -36 0 -7 14 -40
30 -71 17 -31 30 -63 30 -71 0 -8 5 -14 10 -14 6 0 10 -9 10 -20 0 -11 5 -20
10 -20 6 0 10 -9 10 -20 0 -11 5 -20 10 -20 6 0 10 -9 10 -20 0 -11 9 -35 20
-55 11 -20 20 -42 20 -50 0 -8 3 -15 8 -15 8 0 32 -49 32 -67 0 -7 5 -13 10
-13 6 0 10 -9 10 -20 0 -11 5 -20 10 -20 6 0 10 -9 10 -20 0 -11 5 -20 10 -20
6 0 10 -11 10 -24 0 -14 5 -28 10 -31 6 -3 10 -15 10 -26 0 -10 5 -19 11 -19
7 0 9 -10 5 -25 -5 -19 -3 -23 9 -19 9 4 15 1 15 -8 0 -19 23 -68 33 -68 4 0
7 -9 7 -20 0 -11 5 -20 10 -20 6 0 10 -6 10 -14 0 -8 13 -39 30 -71 16 -31 35
-74 41 -95 7 -22 20 -47 31 -56 17 -16 18 -16 18 4 0 12 -4 22 -10 22 -5 0
-10 6 -10 13 0 6 -23 59 -51 117 -28 58 -59 123 -69 145 -20 45 -117 251 -131
277 -5 10 -9 25 -9 33 0 8 -4 15 -10 15 -5 0 -10 6 -10 13 0 10 -67 154 -111
239 -5 10 -9 25 -9 33 0 8 -4 15 -10 15 -5 0 -10 6 -10 13 0 10 -31 77 -121
260 -10 22 -19 45 -19 53 0 8 -4 14 -10 14 -5 0 -10 9 -10 20 0 11 -4 20 -10
20 -5 0 -10 -6 -10 -14z"/>
<path d="M7340 4259 c0 -5 5 -7 10 -4 6 3 10 8 10 11 0 2 -4 4 -10 4 -5 0 -10
-5 -10 -11z"/>
<path d="M7400 4161 c0 -6 5 -13 10 -16 6 -3 10 1 10 9 0 9 -4 16 -10 16 -5 0
-10 -4 -10 -9z"/>
<path d="M8660 4070 c0 -5 7 -10 15 -10 8 0 15 5 15 10 0 6 -7 10 -15 10 -8 0
-15 -4 -15 -10z"/>
<path d="M8528 4063 c7 -3 16 -2 19 1 4 3 -2 6 -13 5 -11 0 -14 -3 -6 -6z"/>
<path d="M8468 4043 c7 -3 16 -2 19 1 4 3 -2 6 -13 5 -11 0 -14 -3 -6 -6z"/>
<path d="M8368 4003 c7 -3 16 -2 19 1 4 3 -2 6 -13 5 -11 0 -14 -3 -6 -6z"/>
<path d="M8328 3983 c7 -3 16 -2 19 1 4 3 -2 6 -13 5 -11 0 -14 -3 -6 -6z"/>
<path d="M8288 3963 c7 -3 16 -2 19 1 4 3 -2 6 -13 5 -11 0 -14 -3 -6 -6z"/>
<path d="M8248 3943 c7 -3 16 -2 19 1 4 3 -2 6 -13 5 -11 0 -14 -3 -6 -6z"/>
<path d="M8208 3923 c7 -3 16 -2 19 1 4 3 -2 6 -13 5 -11 0 -14 -3 -6 -6z"/>
<path d="M8168 3903 c7 -3 16 -2 19 1 4 3 -2 6 -13 5 -11 0 -14 -3 -6 -6z"/>
<path d="M7640 3816 c0 -2 8 -10 18 -17 15 -13 16 -12 3 4 -13 16 -21 21 -21
13z"/>
<path d="M11047 4251 c-20 -40 -20 -41 -7 -41 6 0 10 6 10 14 0 8 5 16 11 18
6 2 10 13 7 23 -3 17 -7 14 -21 -14z"/>
<path d="M11006 4185 c-3 -8 -1 -15 3 -15 5 0 11 7 15 15 3 8 1 15 -3 15 -5 0
-11 -7 -15 -15z"/>
<path d="M10986 4144 c-5 -14 -4 -15 9 -4 17 14 19 20 6 20 -5 0 -12 -7 -15
-16z"/>
<path d="M9710 4070 c0 -5 11 -10 25 -10 14 0 25 5 25 10 0 6 -11 10 -25 10
-14 0 -25 -4 -25 -10z"/>
<path d="M9830 4070 c0 -5 7 -10 16 -10 8 0 12 5 9 10 -3 6 -10 10 -16 10 -5
0 -9 -4 -9 -10z"/>
<path d="M9880 4070 c0 -5 5 -10 11 -10 5 0 7 5 4 10 -3 6 -8 10 -11 10 -2 0
-4 -4 -4 -10z"/>
<path d="M9915 4050 c-3 -5 3 -10 14 -10 12 0 21 5 21 10 0 6 -6 10 -14 10 -8
0 -18 -4 -21 -10z"/>
<path d="M9976 4032 c-3 -6 3 -12 15 -15 12 -3 19 -1 16 6 -5 15 -24 20 -31 9z"/>
<path d="M10044 4008 c3 -13 91 -65 114 -67 6 -1 12 4 12 9 0 6 -9 10 -20 10
-11 0 -20 5 -20 10 0 6 -9 10 -20 10 -11 0 -20 5 -20 10 0 6 -9 10 -19 10 -11
0 -22 5 -24 10 -3 6 -4 5 -3 -2z"/>
<path d="M10205 3917 c23 -19 45 -22 45 -7 0 6 -6 10 -14 10 -8 0 -23 3 -33 6
-16 6 -16 5 2 -9z"/>
<path d="M10260 3890 c0 -5 7 -10 16 -10 8 0 12 5 9 10 -3 6 -10 10 -16 10 -5
0 -9 -4 -9 -10z"/>
<path d="M10300 3870 c0 -5 7 -10 16 -10 8 0 12 5 9 10 -3 6 -10 10 -16 10 -5
0 -9 -4 -9 -10z"/>
<path d="M10340 3850 c0 -5 7 -10 16 -10 8 0 12 5 9 10 -3 6 -10 10 -16 10 -5
0 -9 -4 -9 -10z"/>
<path d="M10380 3830 c0 -5 7 -10 16 -10 8 0 12 5 9 10 -3 6 -10 10 -16 10 -5
0 -9 -4 -9 -10z"/>
<path d="M10420 3810 c0 -6 7 -10 15 -10 8 0 15 2 15 4 0 2 -7 6 -15 10 -8 3
-15 1 -15 -4z"/>
<path d="M10741 3794 c0 -11 3 -14 6 -6 3 7 2 16 -1 19 -3 4 -6 -2 -5 -13z"/>
<path d="M10480 3775 c14 -8 32 -14 40 -15 8 0 2 7 -14 15 -36 19 -59 19 -26
0z"/>
<path d="M10710 3760 c-9 -16 -8 -18 5 -14 8 4 15 12 15 20 0 20 -7 17 -20 -6z"/>
<path d="M10564 3735 c15 -8 33 -15 40 -15 6 0 -2 7 -18 15 -15 8 -33 15 -40
15 -6 0 2 -7 18 -15z"/>
<path d="M10648 3703 c7 -3 16 -2 19 1 4 3 -2 6 -13 5 -11 0 -14 -3 -6 -6z"/>
<path d="M6045 2690 c3 -5 8 -10 11 -10 2 0 4 5 4 10 0 6 -5 10 -11 10 -5 0
-7 -4 -4 -10z"/>
<path d="M8190 3666 c0 -2 7 -9 15 -16 9 -7 15 -8 15 -2 0 5 -7 12 -15 16 -8
3 -15 4 -15 2z"/>
<path d="M8228 3628 c-4 -10 1 -23 13 -34 11 -10 19 -12 19 -6 0 7 -4 12 -9
12 -5 0 -11 10 -13 23 -3 18 -4 19 -10 5z"/>
<path d="M8265 3561 c-3 -5 -1 -12 5 -16 5 -3 10 1 10 9 0 18 -6 21 -15 7z"/>
<path d="M8285 3521 c-3 -5 -1 -12 5 -16 5 -3 10 1 10 9 0 18 -6 21 -15 7z"/>
<path d="M8307 3465 c-4 -8 -2 -17 3 -20 6 -4 10 3 10 14 0 25 -6 27 -13 6z"/>
<path d="M8325 3390 c3 -5 8 -10 11 -10 2 0 4 5 4 10 0 6 -5 10 -11 10 -5 0
-7 -4 -4 -10z"/>
<path d="M8351 3344 c0 -11 3 -14 6 -6 3 7 2 16 -1 19 -3 4 -6 -2 -5 -13z"/>
<path d="M8311 3284 c0 -11 3 -14 6 -6 3 7 2 16 -1 19 -3 4 -6 -2 -5 -13z"/>
<path d="M7380 2946 c0 -2 8 -10 18 -17 15 -13 16 -12 3 4 -13 16 -21 21 -21
13z"/>
<path d="M7420 2902 c0 -5 11 -19 25 -32 14 -13 25 -20 25 -16 0 4 -11 18 -25
32 -14 14 -25 21 -25 16z"/>
<path d="M11151 3113 c-7 -8 -11 -16 -8 -19 2 -2 10 2 17 11 17 20 9 27 -9 8z"/>
<path d="M11115 3070 c-3 -5 -2 -10 4 -10 5 0 13 5 16 10 3 6 2 10 -4 10 -5 0
-13 -4 -16 -10z"/>
<path d="M11011 2953 c-7 -8 -11 -16 -8 -19 2 -2 10 2 17 11 17 20 9 27 -9 8z"/>
<path d="M10856 2774 c-5 -14 -4 -15 9 -4 17 14 19 20 6 20 -5 0 -12 -7 -15
-16z"/>
<path d="M8480 2876 c0 -2 7 -9 15 -16 13 -11 14 -10 9 4 -5 14 -24 23 -24 12z"/>
<path d="M8450 2805 c0 -8 7 -15 15 -15 8 0 15 7 15 15 0 8 -7 15 -15 15 -8 0
-15 -7 -15 -15z"/>
<path d="M7135 2449 c-10 -15 3 -25 16 -12 7 7 7 13 1 17 -6 3 -14 1 -17 -5z"/>
<path d="M7696 2231 c-4 -5 -2 -12 3 -15 5 -4 12 -2 15 3 4 5 2 12 -3 15 -5 4
-12 2 -15 -3z"/>
<path d="M7755 2160 c3 -5 8 -10 11 -10 2 0 4 5 4 10 0 6 -5 10 -11 10 -5 0
-7 -4 -4 -10z"/>
<path d="M9815 2280 c4 -6 11 -8 16 -5 14 9 11 15 -7 15 -8 0 -12 -5 -9 -10z"/>
<path d="M10440 1784 c0 -8 5 -12 10 -9 6 3 10 10 10 16 0 5 -4 9 -10 9 -5 0
-10 -7 -10 -16z"/>
</g>
</svg>
