<?xml version="1.0" standalone="no"?>
<!DOCTYPE svg PUBLIC "-//W3C//DTD SVG 20010904//EN"
 "http://www.w3.org/TR/2001/REC-SVG-20010904/DTD/svg10.dtd">
<svg version="1.0" xmlns="http://www.w3.org/2000/svg"
 width="225.000000pt" height="225.000000pt" viewBox="0 0 225.000000 225.000000"
 preserveAspectRatio="xMidYMid meet">
<metadata>
Created by potrace 1.16, written by Peter Selinger 2001-2019
</metadata>
<g transform="translate(0.000000,225.000000) scale(0.100000,-0.100000)"
fill="#000000" stroke="none">
<path d="M413 1585 c-33 -14 -73 -67 -73 -95 0 -39 24 -92 60 -132 22 -25 36
-48 33 -52 -3 -3 -87 -6 -185 -6 l-178 0 0 -70 0 -70 233 0 c254 0 262 2 292
60 8 16 15 49 15 74 0 39 -6 53 -46 102 -36 44 -43 58 -33 65 8 5 59 8 114 7
l100 -3 3 -152 3 -153 69 0 70 0 0 155 0 155 95 0 95 0 0 65 0 65 -317 0
c-250 -1 -325 -4 -350 -15z"/>
<path d="M1108 1380 l-65 -220 73 0 c71 0 72 0 83 30 10 30 10 30 86 30 76 0
77 0 88 -30 11 -29 13 -30 79 -30 48 0 68 4 68 13 0 6 -27 104 -58 217 l-58
205 -115 3 -115 3 -66 -221z"/>
<path d="M1590 1380 l0 -220 75 0 75 0 0 72 0 72 68 -72 67 -72 153 0 152 0 0
70 0 69 -117 3 c-115 3 -146 13 -101 33 31 15 58 73 58 127 0 36 -6 54 -27 79
-44 52 -74 59 -248 59 l-155 0 0 -220z"/>
<path d="M70 1093 c0 -5 29 -102 63 -218 l63 -210 66 -3 67 -3 32 103 33 103
17 -60 c10 -33 23 -79 29 -103 l11 -43 66 3 66 3 57 195 c31 107 60 205 64
218 7 21 5 22 -63 22 l-70 0 -21 -70 c-11 -38 -23 -70 -25 -70 -2 0 -14 32
-25 70 l-21 70 -84 0 -84 0 -10 -38 c-6 -21 -14 -52 -17 -70 -4 -18 -9 -32
-13 -32 -4 0 -15 32 -25 70 l-18 70 -79 0 c-43 0 -79 -3 -79 -7z"/>
<path d="M1843 1085 c-81 -35 -83 -147 -4 -234 17 -19 31 -38 31 -43 0 -11
-251 -10 -268 1 -10 6 -7 12 13 25 34 22 55 73 55 132 0 41 -5 51 -39 85 l-39
39 -176 0 -176 0 0 -220 0 -220 75 0 75 0 0 78 0 77 63 -67 c34 -38 75 -72 90
-78 42 -15 414 -1 450 17 36 18 67 69 67 109 0 32 -15 57 -78 128 -45 50 -35
56 96 56 l102 0 0 65 0 65 -152 0 c-108 -1 -162 -5 -185 -15z"/>
<path d="M810 1086 c0 -1 -27 -94 -60 -206 -33 -112 -60 -209 -60 -216 0 -11
17 -14 68 -14 l68 0 13 35 12 35 75 0 75 0 15 -35 14 -35 71 0 c59 0 70 3 65
15 -3 8 -31 107 -63 220 l-57 205 -118 0 c-65 0 -118 -2 -118 -4z"/>
</g>
</svg>
